<svg width="15" height="16" viewBox="0 0 15 16" fill="none" xmlns="http://www.w3.org/2000/svg">
<path d="M0.456283 1.60275H14.2145C14.434 1.60275 14.6117 1.4248 14.6117 1.20555C14.6117 0.986031 14.434 0.80835 14.2145 0.80835H0.456283C0.236763 0.80835 0.059082 0.986031 0.059082 1.20555C0.059082 1.4248 0.237028 1.60275 0.456283 1.60275Z" fill="white"/>
<path d="M14.2145 7.99048H0.456252C0.236733 7.99048 0.0590515 8.16842 0.0590515 8.38768C0.0590515 8.6072 0.236733 8.78488 0.456252 8.78488H14.2145C14.434 8.78488 14.6117 8.6072 14.6117 8.38768C14.6117 8.16842 14.4337 7.99048 14.2145 7.99048Z" fill="white"/>
<path d="M14.2145 15.0198H0.456252C0.236733 15.0198 0.0590515 15.1977 0.0590515 15.417C0.0590515 15.6365 0.236733 15.8142 0.456252 15.8142H14.2145C14.434 15.8142 14.6117 15.6365 14.6117 15.417C14.6117 15.1977 14.4337 15.0198 14.2145 15.0198Z" fill="white"/>
</svg>
