<svg width="153" height="22" viewBox="0 0 153 22" fill="none" xmlns="http://www.w3.org/2000/svg">
<path d="M19.0918 2.83679H1.5C0.947715 2.83679 0.5 3.28451 0.5 3.83679V18.1633C0.5 18.7156 0.947714 19.1633 1.5 19.1633H19.0918C19.6441 19.1633 20.0918 18.7156 20.0918 18.1633V3.83679C20.0918 3.28451 19.6441 2.83679 19.0918 2.83679Z" stroke="#2CAE92" stroke-miterlimit="5"/>
<path d="M19.4999 8.95923H13.3367C12.7844 8.95923 12.3367 9.40694 12.3367 9.95923V12.449C12.3367 13.0013 12.7844 13.449 13.3367 13.449H19.4999C20.0522 13.449 20.4999 13.0013 20.4999 12.449V9.95923C20.4999 9.40694 20.0522 8.95923 19.4999 8.95923Z" stroke="#2CAE92" stroke-miterlimit="5"/>
<path d="M36.3061 15.016C36.6608 15.016 36.9501 14.9647 37.1741 14.862C37.4075 14.75 37.5848 14.6053 37.7061 14.428C37.8368 14.2413 37.9255 14.0313 37.9721 13.798C38.0188 13.5553 38.0421 13.308 38.0421 13.056V12.804H39.8901V13.056C39.8901 14.2227 39.5821 15.1233 38.9661 15.758C38.3595 16.3833 37.4728 16.696 36.3061 16.696C35.1861 16.696 34.2995 16.3553 33.6461 15.674C32.9928 14.9927 32.6661 13.9987 32.6661 12.692V10.508C32.6661 9.88267 32.7501 9.32267 32.9181 8.828C33.0861 8.324 33.3288 7.904 33.6461 7.568C33.9635 7.22267 34.3461 6.96133 34.7941 6.784C35.2421 6.59733 35.7461 6.504 36.3061 6.504C36.8848 6.504 37.3981 6.588 37.8461 6.756C38.2941 6.924 38.6675 7.16667 38.9661 7.484C39.2741 7.80133 39.5028 8.184 39.6521 8.632C39.8108 9.08 39.8901 9.584 39.8901 10.144V10.396H38.0421V10.144C38.0421 9.91067 38.0141 9.67733 37.9581 9.444C37.9021 9.21067 37.8088 9.00067 37.6781 8.814C37.5475 8.62733 37.3701 8.478 37.1461 8.366C36.9221 8.24467 36.6421 8.184 36.3061 8.184C35.9981 8.184 35.7321 8.24467 35.5081 8.366C35.2841 8.478 35.0975 8.63667 34.9481 8.842C34.7988 9.038 34.6868 9.27133 34.6121 9.542C34.5468 9.80333 34.5141 10.0787 34.5141 10.368V12.832C34.5141 13.1493 34.5468 13.4433 34.6121 13.714C34.6775 13.9753 34.7801 14.204 34.9201 14.4C35.0601 14.596 35.2421 14.75 35.4661 14.862C35.6995 14.9647 35.9795 15.016 36.3061 15.016ZM48.4624 13.112C48.4624 13.6907 48.3644 14.204 48.1684 14.652C47.9724 15.0907 47.7064 15.464 47.3704 15.772C47.0344 16.0707 46.6471 16.2993 46.2084 16.458C45.7791 16.6167 45.3264 16.696 44.8504 16.696C44.3744 16.696 43.9171 16.6167 43.4784 16.458C43.0491 16.2993 42.6664 16.0707 42.3304 15.772C41.9944 15.464 41.7284 15.0907 41.5324 14.652C41.3364 14.204 41.2384 13.6907 41.2384 13.112V12.944C41.2384 12.3747 41.3364 11.8707 41.5324 11.432C41.7284 10.984 41.9944 10.606 42.3304 10.298C42.6664 9.99 43.0491 9.75667 43.4784 9.598C43.9171 9.43933 44.3744 9.36 44.8504 9.36C45.3264 9.36 45.7791 9.43933 46.2084 9.598C46.6471 9.75667 47.0344 9.99 47.3704 10.298C47.7064 10.606 47.9724 10.984 48.1684 11.432C48.3644 11.8707 48.4624 12.3747 48.4624 12.944V13.112ZM44.8504 15.016C45.1024 15.016 45.3404 14.974 45.5644 14.89C45.7884 14.806 45.9844 14.6847 46.1524 14.526C46.3204 14.3673 46.4511 14.176 46.5444 13.952C46.6471 13.7187 46.6984 13.4573 46.6984 13.168V12.888C46.6984 12.5987 46.6471 12.342 46.5444 12.118C46.4511 11.8847 46.3204 11.6887 46.1524 11.53C45.9844 11.3713 45.7884 11.25 45.5644 11.166C45.3404 11.082 45.1024 11.04 44.8504 11.04C44.5984 11.04 44.3604 11.082 44.1364 11.166C43.9124 11.25 43.7164 11.3713 43.5484 11.53C43.3804 11.6887 43.2451 11.8847 43.1424 12.118C43.0491 12.342 43.0024 12.5987 43.0024 12.888V13.168C43.0024 13.4573 43.0491 13.7187 43.1424 13.952C43.2451 14.176 43.3804 14.3673 43.5484 14.526C43.7164 14.6847 43.9124 14.806 44.1364 14.89C44.3604 14.974 44.5984 15.016 44.8504 15.016ZM51.9947 16.5H50.2307V9.556H51.9947V10.592H52.2467C52.4053 10.2 52.662 9.89667 53.0167 9.682C53.3713 9.46733 53.7867 9.36 54.2627 9.36C54.5987 9.36 54.9113 9.416 55.2007 9.528C55.4993 9.63067 55.7607 9.794 55.9847 10.018C56.2087 10.242 56.3813 10.5267 56.5027 10.872C56.6333 11.2173 56.6987 11.628 56.6987 12.104V16.5H54.9347V12.552C54.9347 12.0573 54.8133 11.67 54.5707 11.39C54.3373 11.1007 53.9967 10.956 53.5487 10.956C53.026 10.956 52.634 11.1333 52.3727 11.488C52.1207 11.8333 51.9947 12.3 51.9947 12.888V16.5ZM60.5669 16.5H58.8029V9.556H60.5669V10.592H60.8189C60.9776 10.2 61.2343 9.89667 61.5889 9.682C61.9436 9.46733 62.3589 9.36 62.8349 9.36C63.1709 9.36 63.4836 9.416 63.7729 9.528C64.0716 9.63067 64.3329 9.794 64.5569 10.018C64.7809 10.242 64.9536 10.5267 65.0749 10.872C65.2056 11.2173 65.2709 11.628 65.2709 12.104V16.5H63.5069V12.552C63.5069 12.0573 63.3856 11.67 63.1429 11.39C62.9096 11.1007 62.5689 10.956 62.1209 10.956C61.5983 10.956 61.2063 11.1333 60.9449 11.488C60.6929 11.8333 60.5669 12.3 60.5669 12.888V16.5ZM68.9292 13.602C68.9385 13.8073 68.9852 13.9987 69.0692 14.176C69.1625 14.344 69.2839 14.4933 69.4332 14.624C69.5919 14.7453 69.7692 14.8433 69.9652 14.918C70.1705 14.9833 70.3852 15.016 70.6092 15.016C71.0479 15.016 71.3839 14.9413 71.6172 14.792C71.8505 14.6333 72.0185 14.4467 72.1212 14.232L73.6332 15.072C73.5492 15.2493 73.4325 15.436 73.2832 15.632C73.1339 15.8187 72.9379 15.9913 72.6952 16.15C72.4619 16.3087 72.1725 16.4393 71.8272 16.542C71.4912 16.6447 71.0945 16.696 70.6372 16.696C70.1145 16.696 69.6385 16.612 69.2092 16.444C68.7799 16.276 68.4065 16.0333 68.0892 15.716C67.7812 15.3987 67.5385 15.0113 67.3612 14.554C67.1932 14.0967 67.1092 13.5787 67.1092 13V12.916C67.1092 12.384 67.1979 11.8987 67.3752 11.46C67.5619 11.0213 67.8139 10.648 68.1312 10.34C68.4485 10.032 68.8172 9.794 69.2372 9.626C69.6665 9.44867 70.1239 9.36 70.6092 9.36C71.2065 9.36 71.7199 9.46733 72.1492 9.682C72.5785 9.88733 72.9332 10.1533 73.2132 10.48C73.4932 10.7973 73.6985 11.152 73.8292 11.544C73.9599 11.9267 74.0252 12.3 74.0252 12.664V13.602H68.9292ZM70.5952 10.956C70.1472 10.956 69.7832 11.0727 69.5032 11.306C69.2232 11.53 69.0412 11.7913 68.9572 12.09H72.2332C72.1772 11.7633 71.9999 11.4927 71.7012 11.278C71.4119 11.0633 71.0432 10.956 70.5952 10.956ZM82.7235 13.952C82.5648 14.7733 82.1868 15.436 81.5895 15.94C81.0015 16.444 80.2128 16.696 79.2235 16.696C78.7101 16.696 78.2295 16.6167 77.7815 16.458C77.3428 16.2993 76.9601 16.0707 76.6335 15.772C76.3068 15.4733 76.0501 15.1047 75.8635 14.666C75.6768 14.2273 75.5835 13.728 75.5835 13.168V13C75.5835 12.44 75.6768 11.936 75.8635 11.488C76.0501 11.04 76.3068 10.6573 76.6335 10.34C76.9695 10.0227 77.3568 9.78 77.7955 9.612C78.2435 9.444 78.7195 9.36 79.2235 9.36C80.1941 9.36 80.9781 9.612 81.5755 10.116C82.1821 10.62 82.5648 11.2827 82.7235 12.104L80.9875 12.552C80.9315 12.1413 80.7541 11.7867 80.4555 11.488C80.1568 11.1893 79.7368 11.04 79.1955 11.04C78.9435 11.04 78.7055 11.0867 78.4815 11.18C78.2575 11.2733 78.0615 11.4087 77.8935 11.586C77.7255 11.754 77.5901 11.964 77.4875 12.216C77.3941 12.4587 77.3475 12.734 77.3475 13.042V13.126C77.3475 13.434 77.3941 13.7093 77.4875 13.952C77.5901 14.1853 77.7255 14.3813 77.8935 14.54C78.0615 14.6987 78.2575 14.82 78.4815 14.904C78.7055 14.9787 78.9435 15.016 79.1955 15.016C79.7368 15.016 80.1475 14.8807 80.4275 14.61C80.7168 14.3393 80.9035 13.9753 80.9875 13.518L82.7235 13.952ZM84.3237 9.556H86.3817V6.7H88.1457V9.556H90.6517V11.236H88.1457V14.4C88.1457 14.68 88.2717 14.82 88.5237 14.82H90.3997V16.5H87.4597C87.1424 16.5 86.8811 16.3973 86.6757 16.192C86.4797 15.9867 86.3817 15.7253 86.3817 15.408V11.236H84.3237V9.556ZM108.692 16.5H105.472L105.024 9.052V7.708H104.688V9.052L104.24 16.5H101.02L100.684 6.7H102.364L102.588 14.148V15.408H102.924V14.148L103.372 6.7H106.34L106.788 14.148V15.408H107.124V14.148L107.348 6.7H109.028L108.692 16.5ZM114.731 15.492C114.544 15.9307 114.283 16.2433 113.947 16.43C113.611 16.6073 113.219 16.696 112.771 16.696C112.351 16.696 111.954 16.6167 111.581 16.458C111.217 16.2993 110.895 16.066 110.615 15.758C110.335 15.45 110.111 15.0767 109.943 14.638C109.784 14.1993 109.705 13.7 109.705 13.14V12.916C109.705 12.3653 109.784 11.8707 109.943 11.432C110.101 10.9933 110.316 10.62 110.587 10.312C110.857 10.004 111.17 9.77067 111.525 9.612C111.889 9.444 112.276 9.36 112.687 9.36C113.181 9.36 113.578 9.444 113.877 9.612C114.185 9.78 114.427 10.0413 114.605 10.396H114.857V9.556H116.621V14.4C116.621 14.68 116.747 14.82 116.999 14.82H117.265V16.5H116.061C115.743 16.5 115.482 16.4067 115.277 16.22C115.081 16.0333 114.983 15.7907 114.983 15.492H114.731ZM113.163 15.016C113.676 15.016 114.087 14.848 114.395 14.512C114.703 14.1667 114.857 13.7 114.857 13.112V12.944C114.857 12.356 114.703 11.894 114.395 11.558C114.087 11.2127 113.676 11.04 113.163 11.04C112.649 11.04 112.239 11.2127 111.931 11.558C111.623 11.894 111.469 12.356 111.469 12.944V13.112C111.469 13.7 111.623 14.1667 111.931 14.512C112.239 14.848 112.649 15.016 113.163 15.016ZM118.767 14.82H121.203V8.38H118.851V6.7H122.967V14.82H125.235V16.5H118.767V14.82ZM127.339 14.82H129.775V8.38H127.423V6.7H131.539V14.82H133.807V16.5H127.339V14.82ZM137.507 13.602C137.517 13.8073 137.563 13.9987 137.647 14.176C137.741 14.344 137.862 14.4933 138.011 14.624C138.17 14.7453 138.347 14.8433 138.543 14.918C138.749 14.9833 138.963 15.016 139.187 15.016C139.626 15.016 139.962 14.9413 140.195 14.792C140.429 14.6333 140.597 14.4467 140.699 14.232L142.211 15.072C142.127 15.2493 142.011 15.436 141.861 15.632C141.712 15.8187 141.516 15.9913 141.273 16.15C141.04 16.3087 140.751 16.4393 140.405 16.542C140.069 16.6447 139.673 16.696 139.215 16.696C138.693 16.696 138.217 16.612 137.787 16.444C137.358 16.276 136.985 16.0333 136.667 15.716C136.359 15.3987 136.117 15.0113 135.939 14.554C135.771 14.0967 135.687 13.5787 135.687 13V12.916C135.687 12.384 135.776 11.8987 135.953 11.46C136.14 11.0213 136.392 10.648 136.709 10.34C137.027 10.032 137.395 9.794 137.815 9.626C138.245 9.44867 138.702 9.36 139.187 9.36C139.785 9.36 140.298 9.46733 140.727 9.682C141.157 9.88733 141.511 10.1533 141.791 10.48C142.071 10.7973 142.277 11.152 142.407 11.544C142.538 11.9267 142.603 12.3 142.603 12.664V13.602H137.507ZM139.173 10.956C138.725 10.956 138.361 11.0727 138.081 11.306C137.801 11.53 137.619 11.7913 137.535 12.09H140.811C140.755 11.7633 140.578 11.4927 140.279 11.278C139.99 11.0633 139.621 10.956 139.173 10.956ZM144.33 9.556H146.388V6.7H148.152V9.556H150.658V11.236H148.152V14.4C148.152 14.68 148.278 14.82 148.53 14.82H150.406V16.5H147.466C147.148 16.5 146.887 16.3973 146.682 16.192C146.486 15.9867 146.388 15.7253 146.388 15.408V11.236H144.33V9.556Z" fill="#2CAE92"/>
</svg>
