<svg width="11" height="10" viewBox="0 0 11 10" fill="none" xmlns="http://www.w3.org/2000/svg">
<path d="M5.14404 0C2.38281 0 0.144043 2.23958 0.144043 5C0.144043 7.76204 2.38281 10 5.14404 10C7.90527 10 10.144 7.76204 10.144 5C10.144 2.23958 7.90527 0 5.14404 0ZM5.14404 2.21774C5.6117 2.21774 5.99082 2.59685 5.99082 3.06452C5.99082 3.53218 5.6117 3.91129 5.14404 3.91129C4.67638 3.91129 4.29727 3.53218 4.29727 3.06452C4.29727 2.59685 4.67638 2.21774 5.14404 2.21774ZM6.27308 7.33871C6.27308 7.47232 6.16475 7.58065 6.03114 7.58065H4.25695C4.12334 7.58065 4.01501 7.47232 4.01501 7.33871V6.85484C4.01501 6.72123 4.12334 6.6129 4.25695 6.6129H4.49888V5.32258H4.25695C4.12334 5.32258 4.01501 5.21425 4.01501 5.08065V4.59677C4.01501 4.46317 4.12334 4.35484 4.25695 4.35484H5.54727C5.68088 4.35484 5.7892 4.46317 5.7892 4.59677V6.6129H6.03114C6.16475 6.6129 6.27308 6.72123 6.27308 6.85484V7.33871Z" fill="#2CAE92"/>
</svg>
