<svg width="550" height="64" viewBox="0 0 550 64" fill="none" xmlns="http://www.w3.org/2000/svg">
<path d="M55.5 31.84L55.5001 31.8414C55.5108 35.6224 55.2454 39.3992 54.7062 43.1415C54.5006 44.3206 53.9316 45.4061 53.0786 46.2459C52.2293 47.0821 51.1408 47.6331 49.9645 47.8226C43.9735 48.2119 37.995 48.55 32.02 48.55C26.1861 48.55 20.35 48.1802 14.4953 47.8091C14.3542 47.8002 14.2131 47.7912 14.072 47.7823C12.9031 47.6098 11.8172 47.0764 10.9661 46.2564C10.1124 45.4339 9.53795 44.3646 9.3235 43.1989C8.22553 35.6663 8.2255 28.0144 9.3234 20.4819C9.53706 19.3396 10.1109 18.2956 10.9611 17.5031C11.8105 16.7111 12.891 16.2119 14.0444 16.0782C20.0374 15.6988 26.0201 15.39 31.9992 15.4C37.9792 15.41 43.9625 15.7187 49.9553 16.0982C51.1069 16.2338 52.1851 16.7338 53.0327 17.5255C53.8811 18.318 54.4537 19.3612 54.6668 20.5024C55.2217 24.2561 55.5002 28.0455 55.5 31.84Z" stroke="#11BC92"/>
<path d="M38.4925 31.76L27.0601 37.8943V25.6258L38.4925 31.76Z" stroke="#11BC92"/>
<path d="M209.875 16.2298C212.253 16.2998 214.626 16.4964 216.983 16.8187L212.184 21.9692L212.05 22.1132V22.31V22.3125V22.315V22.3174V22.3199V22.3223V22.3248V22.3273V22.3297V22.3322V22.3346V22.3371V22.3396V22.342V22.3445V22.347V22.3494V22.3519V22.3543V22.3568V22.3593V22.3617V22.3642V22.3666V22.3691V22.3716V22.374V22.3765V22.3789V22.3814V22.3839V22.3863V22.3888V22.3913V22.3937V22.3962V22.3986V22.4011V22.4036V22.406V22.4085V22.4109V22.4134V22.4159V22.4183V22.4208V22.4232V22.4257V22.4282V22.4306V22.4331V22.4356V22.438V22.4405V22.4429V22.4454V22.4479V22.4503V22.4528V22.4552V22.4577V22.4602V22.4626V22.4651V22.4676V22.47V22.4725V22.4749V22.4774V22.4799V22.4823V22.4848V22.4873V22.4897V22.4922V22.4946V22.4971V22.4996V22.502V22.5045V22.507V22.5094V22.5119V22.5143V22.5168V22.5193V22.5217V22.5242V22.5267V22.5291V22.5316V22.534V22.5365V22.539V22.5414V22.5439V22.5464V22.5488V22.5513V22.5537V22.5562V22.5587V22.5611V22.5636V22.5661V22.5685V22.571V22.5735V22.5759V22.5784V22.5808V22.5833V22.5858V22.5882V22.5907V22.5932V22.5956V22.5981V22.6006V22.603V22.6055V22.6079V22.6104V22.6129V22.6153V22.6178V22.6203V22.6227V22.6252V22.6277V22.6301V22.6326V22.6351V22.6375V22.64V22.6424V22.6449V22.6474V22.6498V22.6523V22.6548V22.6572V22.6597V22.6622V22.6646V22.6671V22.6696V22.672V22.6745V22.677V22.6794V22.6819V22.6844V22.6868V22.6893V22.6918V22.6942V22.6967V22.6992V22.7016V22.7041V22.7066V22.709V22.7115V22.714V22.7164V22.7189V22.7214V22.7238V22.7263V22.7288V22.7312V22.7337V22.7362V22.7386V22.7411V22.7436V22.746V22.7485V22.751V22.7534V22.7559V22.7584V22.7608V22.7633V22.7658V22.7683V22.7707V22.7732V22.7757V22.7781V22.7806V22.7831V22.7855V22.788V22.7905V22.7929V22.7954V22.7979V22.8004V22.8028V22.8053V22.8078V22.8102V22.8127V22.8152V22.8176V22.8201V22.8226V22.8251V22.8275V22.83V22.8325V22.8349V22.8374V22.8399V22.8424V22.8448V22.8473V22.8498V22.8522V22.8547V22.8572V22.8597V22.8621V22.8646V22.8671V22.8695V22.872V22.8745V22.877V22.8794V22.8819V22.8844V22.8869V22.8893V22.8918V22.8943V22.8967V22.8992V22.9017V22.9042V22.9066V22.9091V22.9116V22.9141V22.9165V22.919V22.9215V22.924V22.9264V22.9289V22.9314V22.9339V22.9363V22.9388V22.9413V22.9438V22.9462V22.9487V22.9512V22.9537V22.9561V22.9586V22.9611V22.9636V22.9661V22.9685V22.971V22.9735V22.976V22.9784V22.9809V22.9834V22.9859V22.9883V22.9908V22.9933V22.9958V22.9983V23.0007V23.0032V23.0057V23.0082V23.0107V23.0131V23.0156V23.0181V23.0206V23.023V23.0255V23.028V23.0305V23.033V23.0354V23.0379V23.0404V23.0429V23.0454V23.0479V23.0503V23.0528V23.0553V23.0578V23.0603V23.0627V23.0652V23.0677V23.0702V23.0727V23.0751V23.0776V23.0801V23.0826V23.0851V23.0876V23.09V23.0925V23.095V23.0975V23.1V23.1025V23.1049V23.1074V23.1099V23.1124V23.1149V23.1174V23.1199V23.1223V23.1248V23.1273V23.1298V23.1323V23.1348V23.1373V23.1397V23.1422V23.1447V23.1472V23.1497V23.1522V23.1547V23.1571V23.1596V23.1621V23.1646V23.1671V23.1696V23.1721V23.1746V23.177V23.1795V23.182V23.1845V23.187V23.1895V23.192V23.1945V23.197V23.1995V23.2019V23.2044V23.2069V23.2094V23.2119V23.2144V23.2169V23.2194V23.2219V23.2244V23.2269V23.2293V23.2318V23.2343V23.2368V23.2393V23.2418V23.2443V23.2468V23.2493V23.2518V23.2543V23.2568V23.2593V23.2618V23.2642V23.2667V23.2692V23.2717V23.2742V23.2767V23.2792V23.2817V23.2842V23.2867V23.2892V23.2917V23.2942V23.2967V23.2992V23.3017V23.3042V23.3067V23.3092V23.3117V23.3142V23.3167V23.3192V23.3217V23.3242V23.3267V23.3292V23.3317V23.3342V23.3367V23.3392V23.3417V23.3442V23.3467V23.3492V23.3517V23.3542V23.3567V23.3592V23.3617V23.3642V23.3667V23.3692V23.3717V23.3742V23.3767V23.3792V23.3817V23.3842V23.3867V23.3892V23.3917V23.3942V23.3967V23.3992V23.4017V23.4042V23.4067V23.4092V23.4117V23.4142V23.4167V23.4192V23.4217V23.4243V23.4268V23.4293V23.4318V23.4343V23.4368V23.4393V23.4418V23.4443V23.4468V23.4493V23.4518V23.4543V23.4568V23.4594V23.4619V23.4644V23.4669V23.4694V23.4719V23.4744V23.4769V23.4794V23.4819V23.4845V23.487V23.4895V23.492V23.4945V23.497V23.4995V23.502V23.5046V23.5071V23.5096V23.5121V23.5146V23.5171V23.5196V23.5221V23.5247V23.5272V23.5297V23.5322V23.5347V23.5372V23.5398V23.5423V23.5448V23.5473V23.5498V23.5523V23.5549V23.5574V23.5599V23.5624V23.5649V23.5674V23.57V23.5725V23.575V23.5775V23.58C212.05 36.2878 202.434 50.89 184.9 50.89H184.9C180.385 50.893 175.953 49.7605 172.006 47.6112C172.112 47.6117 172.217 47.6113 172.323 47.61C176.815 47.6109 181.175 46.0968 184.7 43.3124L185.621 42.5851L184.458 42.4247C177.63 41.4826 173.069 35.7903 171.352 31.3655C173.82 32.2423 176.407 32.7497 179.027 32.8695L180.735 32.9476L179.338 31.9616C176.384 29.8755 174.101 26.9733 172.771 23.6102C172.238 21.9758 172.307 19.9889 172.624 18.1892C172.863 16.8296 173.236 15.6174 173.56 14.8008C179.181 20.718 185.288 24.7326 193.305 25.1394L193.965 25.1729L193.817 24.5281C193.364 22.5528 193.571 20.4832 194.408 18.6374C195.245 16.7915 196.665 15.2717 198.45 14.3114C200.234 13.3511 202.285 13.0036 204.287 13.3222C206.288 13.6408 208.13 14.608 209.528 16.075L209.67 16.2238L209.875 16.2298Z" stroke="#11BC92"/>
<path d="M332.5 51.5V12.5H379.5V51.5H332.5Z" stroke="#11BC92"/>
<mask id="path-5-inside-1" fill="white">
<path d="M380 20L356 36L332 20"/>
</mask>
<path d="M356 36L355.445 36.8321L356 37.2019L356.555 36.8321L356 36ZM379.445 19.1679L355.445 35.1679L356.555 36.8321L380.555 20.8321L379.445 19.1679ZM356.555 35.1679L332.555 19.1679L331.445 20.8321L355.445 36.8321L356.555 35.1679Z" fill="#11BC92" mask="url(#path-5-inside-1)"/>
<mask id="path-7-inside-2" fill="white">
<path d="M500.55 40.17C504.08 42.84 509.41 45.63 518 45.63C526.59 45.63 531.92 42.84 535.45 40.17"/>
</mask>
<path d="M499.947 40.9676C503.623 43.7482 509.16 46.63 518 46.63V44.63C509.66 44.63 504.537 41.9319 501.153 39.3725L499.947 40.9676ZM518 46.63C526.84 46.63 532.377 43.7482 536.053 40.9676L534.847 39.3725C531.463 41.9319 526.34 44.63 518 44.63V46.63Z" fill="#11BC92" mask="url(#path-7-inside-2)"/>
<mask id="path-9-inside-3" fill="white">
<path d="M534 22.18C529.69 19.98 525.43 17.92 518 17.92C510.57 17.92 506.33 20 502 22.18"/>
</mask>
<path d="M534.455 21.2894C530.096 19.0646 525.666 16.92 518 16.92V18.92C525.194 18.92 529.284 20.8955 533.545 23.0707L534.455 21.2894ZM518 16.92C510.332 16.92 505.921 19.0864 501.55 21.2869L502.45 23.0732C506.739 20.9137 510.808 18.92 518 18.92V16.92Z" fill="#11BC92" mask="url(#path-9-inside-3)"/>
<mask id="path-11-inside-4" fill="white">
<path d="M513.32 18.23L511.45 14.55C507.498 15.0248 503.739 16.5281 500.55 18.91C500.55 18.91 495 27 494 42.91C499.63 49.4 508.18 49.4501 508.18 49.4501L511.5 45"/>
</mask>
<path d="M511.45 14.55L512.342 14.097L512.025 13.4738L511.331 13.5572L511.45 14.55ZM500.55 18.91L499.952 18.1088L497.54 19.91H500.55V18.91ZM494 42.91L493.002 42.8473L492.976 43.256L493.245 43.5653L494 42.91ZM508.18 49.4501L508.174 50.45L508.679 50.453L508.982 50.048L508.18 49.4501ZM514.212 17.777L512.342 14.097L510.559 15.0031L512.428 18.6831L514.212 17.777ZM511.331 13.5572C507.205 14.0528 503.281 15.6222 499.952 18.1088L501.148 19.7113C504.198 17.4341 507.791 15.9968 511.569 15.5429L511.331 13.5572ZM500.55 18.91C499.725 18.3443 499.725 18.3447 499.725 18.3451C499.725 18.3453 499.724 18.3457 499.724 18.3461C499.724 18.3468 499.723 18.3476 499.723 18.3485C499.721 18.3504 499.72 18.3528 499.718 18.3557C499.714 18.3614 499.709 18.3692 499.702 18.3789C499.689 18.3984 499.671 18.4258 499.648 18.4612C499.602 18.5319 499.537 18.6343 499.456 18.7684C499.292 19.0367 499.062 19.4317 498.784 19.9529C498.23 20.9953 497.487 22.5428 496.714 24.591C495.169 28.6883 493.509 34.7858 493.002 42.8473L494.998 42.9728C495.491 35.1243 497.106 29.2218 498.586 25.2966C499.326 23.3336 500.033 21.8641 500.55 20.8925C500.809 20.4067 501.02 20.0454 501.164 19.809C501.236 19.6909 501.291 19.604 501.327 19.5484C501.345 19.5206 501.358 19.5007 501.366 19.4886C501.37 19.4825 501.373 19.4784 501.374 19.4763C501.375 19.4752 501.375 19.4746 501.375 19.4745C501.375 19.4745 501.375 19.4746 501.375 19.4748C501.375 19.4749 501.375 19.4751 501.375 19.4752C501.375 19.4755 501.375 19.4758 500.55 18.91ZM493.245 43.5653C496.225 47.0011 499.964 48.7164 502.923 49.5742C504.405 50.0041 505.705 50.2225 506.638 50.3338C507.105 50.3895 507.481 50.4185 507.744 50.4336C507.876 50.4411 507.98 50.4452 508.052 50.4474C508.088 50.4485 508.117 50.4492 508.137 50.4495C508.148 50.4497 508.156 50.4498 508.162 50.4499C508.165 50.45 508.168 50.45 508.17 50.45C508.171 50.45 508.172 50.45 508.172 50.45C508.173 50.45 508.173 50.45 508.173 50.45C508.174 50.45 508.174 50.45 508.18 49.4501C508.186 48.4501 508.186 48.4501 508.186 48.4501C508.187 48.4501 508.187 48.4501 508.187 48.4501C508.187 48.4501 508.187 48.4501 508.187 48.4501C508.187 48.4501 508.187 48.4501 508.186 48.4501C508.183 48.45 508.179 48.45 508.173 48.4499C508.161 48.4496 508.141 48.4492 508.113 48.4484C508.058 48.4467 507.972 48.4434 507.859 48.4369C507.633 48.4239 507.297 48.3983 506.875 48.3479C506.028 48.2469 504.838 48.0473 503.48 47.6534C500.756 46.8637 497.405 45.309 494.755 42.2548L493.245 43.5653ZM508.982 50.048L512.302 45.598L510.698 44.4021L507.378 48.8521L508.982 50.048Z" fill="#11BC92" mask="url(#path-11-inside-4)"/>
<mask id="path-13-inside-5" fill="white">
<path d="M524.5 45L527.82 49.42C527.82 49.42 536.37 49.4 542 42.91C541 27.01 535.45 18.91 535.45 18.91C535.45 18.91 530.45 14.99 524.55 14.55L522.73 18.24"/>
</mask>
<path d="M527.82 49.42L527.02 50.0206L527.321 50.4212L527.822 50.42L527.82 49.42ZM542 42.91L542.755 43.5653L543.024 43.256L542.998 42.8473L542 42.91ZM535.45 18.91L536.275 18.3448L536.188 18.218L536.067 18.1231L535.45 18.91ZM524.55 14.55L524.624 13.5528L523.952 13.5026L523.653 14.1077L524.55 14.55ZM523.7 45.6006L527.02 50.0206L528.62 48.8195L525.3 44.3995L523.7 45.6006ZM527.82 49.42C527.822 50.42 527.823 50.42 527.823 50.42C527.823 50.42 527.824 50.42 527.824 50.42C527.825 50.42 527.826 50.42 527.827 50.42C527.829 50.42 527.831 50.42 527.835 50.42C527.841 50.4199 527.849 50.4198 527.859 50.4197C527.88 50.4194 527.908 50.4189 527.944 50.4179C528.017 50.4159 528.121 50.4122 528.252 50.4051C528.516 50.3908 528.892 50.3631 529.359 50.3088C530.292 50.2005 531.592 49.9859 533.075 49.5599C536.034 48.7097 539.774 47.0019 542.755 43.5653L541.245 42.2548C538.596 45.3082 535.246 46.8554 532.523 47.6377C531.164 48.0279 529.975 48.2239 529.129 48.3222C528.706 48.3713 528.371 48.3958 528.144 48.408C528.031 48.4141 527.946 48.4171 527.89 48.4186C527.863 48.4194 527.842 48.4197 527.83 48.4199C527.824 48.42 527.82 48.42 527.818 48.42C527.817 48.4201 527.816 48.4201 527.816 48.4201C527.816 48.4201 527.816 48.4201 527.817 48.4201C527.817 48.4201 527.817 48.4201 527.817 48.4201C527.817 48.4201 527.818 48.4201 527.82 49.42ZM542.998 42.8473C542.491 34.7908 540.831 28.6932 539.286 24.5948C538.513 22.5461 537.77 20.9978 537.216 19.9546C536.938 19.433 536.708 19.0377 536.545 18.7692C536.463 18.635 536.398 18.5325 536.352 18.4617C536.329 18.4263 536.311 18.3989 536.298 18.3794C536.292 18.3697 536.287 18.3619 536.283 18.3561C536.281 18.3533 536.279 18.3509 536.278 18.349C536.277 18.348 536.277 18.3472 536.276 18.3465C536.276 18.3462 536.276 18.3458 536.275 18.3456C536.275 18.3452 536.275 18.3448 535.45 18.91C534.625 19.4753 534.625 19.475 534.625 19.4747C534.625 19.4747 534.624 19.4744 534.624 19.4743C534.624 19.4741 534.624 19.474 534.624 19.4741C534.624 19.4742 534.625 19.4747 534.625 19.4758C534.627 19.478 534.63 19.4821 534.634 19.4881C534.642 19.5003 534.655 19.5203 534.673 19.5481C534.709 19.6038 534.764 19.6908 534.836 19.8091C534.98 20.0457 535.191 20.4074 535.45 20.8936C535.967 21.8661 536.674 23.3365 537.414 25.3003C538.894 29.2269 540.509 35.1293 541.002 42.9728L542.998 42.8473ZM535.45 18.91C536.067 18.1231 536.067 18.1229 536.067 18.1227C536.066 18.1226 536.066 18.1224 536.066 18.1223C536.066 18.1219 536.065 18.1216 536.064 18.1211C536.063 18.1202 536.062 18.1191 536.06 18.1177C536.057 18.115 536.052 18.1113 536.046 18.1067C536.034 18.0976 536.017 18.0848 535.996 18.0687C535.953 18.0363 535.892 17.9904 535.813 17.9326C535.654 17.8172 535.425 17.6544 535.132 17.4589C534.547 17.0684 533.706 16.5453 532.674 16.0081C530.623 14.9396 527.761 13.7867 524.624 13.5528L524.476 15.5473C527.239 15.7534 529.827 16.7805 531.751 17.782C532.707 18.2798 533.485 18.7642 534.021 19.1224C534.289 19.3014 534.497 19.4482 534.635 19.5489C534.704 19.5992 534.755 19.6379 534.789 19.6632C534.805 19.6758 534.818 19.6851 534.825 19.6908C534.829 19.6937 534.831 19.6957 534.833 19.6967C534.833 19.6972 534.834 19.6975 534.834 19.6976C534.834 19.6976 534.834 19.6976 534.834 19.6975C534.834 19.6974 534.833 19.6973 534.833 19.6973C534.833 19.6972 534.833 19.697 535.45 18.91ZM523.653 14.1077L521.833 17.7977L523.627 18.6824L525.447 14.9924L523.653 14.1077Z" fill="#11BC92" mask="url(#path-13-inside-5)"/>
<path d="M514.23 34.1799C514.23 36.3759 512.684 38.0399 510.91 38.0399C509.136 38.0399 507.59 36.3759 507.59 34.1799C507.59 31.984 509.136 30.3199 510.91 30.3199C512.684 30.3199 514.23 31.984 514.23 34.1799Z" stroke="#11BC92"/>
<path d="M528.41 34.1799C528.41 36.3759 526.864 38.0399 525.09 38.0399C523.316 38.0399 521.77 36.3759 521.77 34.1799C521.77 31.984 523.316 30.3199 525.09 30.3199C526.864 30.3199 528.41 31.984 528.41 34.1799Z" stroke="#11BC92"/>
</svg>
