<?xml version="1.0" encoding="UTF-8"?>
<svg width="4479px" height="318px" viewBox="0 0 4479 318" version="1.1" xmlns="http://www.w3.org/2000/svg" xmlns:xlink="http://www.w3.org/1999/xlink">
    <title>Group 427318211</title>
    <g id="Page-1" stroke="none" stroke-width="1" fill="none" fill-rule="evenodd">
        <g id="Group-427318211" fill="#11BC92">
            <path d="M207.181,124.66 C217.374,138.948 222.907,156.298 222.762,173.793 C222.762,190.997 217.228,208.201 207.181,222.198 L228.441,238.381 C241.983,219.719 249.41,196.975 249.41,173.939 C249.555,149.591 241.546,125.681 226.839,106.436 L214.647,117.426 L207.181,124.66 Z" id="Path"></path>
            <path d="M247.372,252.715 L175.873,198.333 C180.97,191.626 183.882,183.462 184.319,175.006 C184.61,166.549 182.426,158.239 177.912,151.095 L212.132,120.186 L247.954,86.653 C250.284,84.466 250.43,80.675 248.1,78.343 L243.149,73.386 C217.666,47.58 183.3,32.563 147.187,31.396 L147.332,11.714 C147.478,10.402 147.332,9.089 147.041,7.777 C146.604,6.465 146.022,5.299 145.148,4.278 C144.274,3.258 143.255,2.529 141.944,1.945 C140.779,1.362 139.469,1.071 138.158,1.071 C136.848,1.071 135.537,1.362 134.372,1.945 C133.207,2.529 132.042,3.258 131.169,4.278 C130.295,5.299 129.567,6.465 129.276,7.631 C128.839,8.944 128.693,10.256 128.984,11.568 L128.839,31.834 C120.247,32.708 111.656,34.312 103.356,36.791 L103.501,11.568 C103.647,10.256 103.501,8.944 103.21,7.631 C102.773,6.319 102.191,5.153 101.317,4.132 C100.443,3.112 99.424,2.383 98.113,1.8 C96.948,1.216 95.638,0.925 94.327,0.925 C93.017,0.925 91.706,1.216 90.541,1.8 C89.376,2.383 88.211,3.112 87.338,4.132 C86.464,5.153 85.736,6.319 85.445,7.486 C85.008,8.798 84.862,10.11 85.153,11.422 L84.716,43.643 C55.302,56.765 31.129,79.655 16.422,108.377 C1.714,137.099 -2.946,170.048 3.462,201.686 C9.869,233.324 26.906,261.9 51.661,282.603 C76.416,303.306 107.578,314.97 139.76,315.553 L243.877,315.991 C247.08,315.991 249.702,313.366 249.702,310.159 L249.702,257.526 C249.702,255.631 248.828,253.881 247.372,252.715 Z M141.799,290.185 C116.17,290.039 91.269,281.437 71.028,265.837 C50.787,250.091 36.226,228.075 29.673,203.29 C23.12,178.505 25.013,152.116 34.769,128.497 C44.671,104.878 62,85.049 84.28,72.219 L84.134,110.564 C83.988,111.876 84.134,113.188 84.425,114.5 C84.862,115.812 85.445,116.979 86.318,117.999 C87.192,119.02 88.211,119.749 89.522,120.332 C90.687,120.915 91.997,121.207 93.308,121.207 C94.618,121.207 95.929,120.915 97.094,120.332 C98.259,119.749 99.424,119.02 100.298,117.999 C101.171,116.979 101.899,115.812 102.191,114.646 C102.627,113.334 102.773,112.022 102.482,110.709 L102.627,63.617 C115.442,58.952 128.984,56.765 142.672,56.765 C167.864,56.765 192.328,65.075 212.278,80.238 C213.734,81.404 213.88,83.445 212.569,84.758 L158.108,134.766 C153.157,132.725 147.769,131.558 142.381,131.558 C136.411,131.558 130.44,132.725 124.907,135.203 C119.374,137.682 114.568,141.327 110.636,145.846 C106.705,150.366 103.792,155.76 102.045,161.447 C100.298,167.278 99.861,173.256 100.734,179.234 C101.608,185.211 103.647,190.897 106.85,196 C110.054,201.103 114.422,205.331 119.374,208.685 C124.47,211.892 130.149,214.079 136.12,214.954 C142.09,215.829 148.206,215.391 153.885,213.642 L223.49,266.566 C224.218,267.149 224.655,268.024 224.655,268.898 L224.51,287.56 C224.51,289.164 223.199,290.476 221.597,290.476 L141.799,290.185 Z M158.836,173.548 C158.836,176.755 157.817,179.963 156.069,182.733 C154.176,185.503 151.701,187.544 148.643,188.856 C145.585,190.168 142.236,190.46 139.178,189.731 C136.12,189.002 133.062,187.544 130.732,185.211 C128.402,182.879 126.8,179.963 126.218,176.755 C125.635,173.548 125.926,170.194 127.237,167.278 C128.547,164.217 130.586,161.738 133.353,159.843 C136.12,158.093 139.323,157.073 142.527,157.073 C146.895,157.073 151.118,158.822 154.176,162.03 C157.089,164.946 158.836,169.028 158.836,173.548 Z" id="Shape"></path>
            <path d="M571.669,155.465 C578.32,156.515 584.359,159.228 589.785,163.604 C595.386,167.98 599.762,173.406 602.913,179.883 C606.238,186.359 607.901,193.273 607.901,200.624 C607.901,209.901 605.538,218.303 600.812,225.83 C596.086,233.181 589.172,239.045 580.07,243.421 C571.144,247.622 560.554,249.722 548.301,249.722 L480.037,249.722 L480.037,66.721 L545.676,66.721 C558.103,66.721 568.693,68.822 577.445,73.023 C586.197,77.049 592.761,82.562 597.136,89.564 C601.512,96.565 603.7,104.442 603.7,113.194 C603.7,124.046 600.725,133.06 594.773,140.237 C588.997,147.238 581.296,152.314 571.669,155.465 Z M503.93,145.75 L544.1,145.75 C555.303,145.75 563.967,143.125 570.093,137.874 C576.22,132.623 579.283,125.359 579.283,116.082 C579.283,106.805 576.22,99.541 570.093,94.29 C563.967,89.039 555.128,86.413 543.575,86.413 L503.93,86.413 L503.93,145.75 Z M546.201,230.031 C558.103,230.031 567.38,227.23 574.032,221.629 C580.683,216.028 584.009,208.239 584.009,198.261 C584.009,188.109 580.508,180.145 573.507,174.369 C566.505,168.418 557.141,165.442 545.413,165.442 L503.93,165.442 L503.93,230.031 L546.201,230.031 Z M768.66,105.842 L768.66,249.722 L744.77,249.722 L744.77,228.455 C740.22,235.807 733.83,241.583 725.6,245.784 C717.55,249.81 708.62,251.823 698.82,251.823 C687.62,251.823 677.55,249.547 668.63,244.996 C659.698,240.27 652.609,233.269 647.358,223.992 C642.282,214.715 639.744,203.425 639.744,190.122 L639.744,105.842 L663.37,105.842 L663.37,186.972 C663.37,201.15 666.96,212.089 674.14,219.791 C681.32,227.317 691.12,231.081 703.55,231.081 C716.32,231.081 726.39,227.142 733.74,219.266 C741.09,211.389 744.77,199.924 744.77,184.871 L744.77,105.842 L768.66,105.842 Z M821.34,82.475 C816.79,82.475 812.94,80.899 809.79,77.749 C806.64,74.598 805.06,70.747 805.06,66.196 C805.06,61.645 806.64,57.795 809.79,54.644 C812.94,51.493 816.79,49.918 821.34,49.918 C825.72,49.918 829.39,51.493 832.37,54.644 C835.52,57.795 837.09,61.645 837.09,66.196 C837.09,70.747 835.52,74.598 832.37,77.749 C829.39,80.899 825.72,82.475 821.34,82.475 Z M832.89,105.842 L832.89,249.722 L809,249.722 L809,105.842 L832.89,105.842 Z M897.51,55.432 L897.51,249.722 L873.61,249.722 L873.61,55.432 L897.51,55.432 Z M967.37,125.534 L967.37,210.339 C967.37,217.34 968.86,222.329 971.83,225.305 C974.81,228.105 979.97,229.505 987.32,229.505 L1004.91,229.505 L1004.91,249.722 L983.39,249.722 C970.08,249.722 960.11,246.659 953.45,240.533 C946.8,234.406 943.48,224.342 943.48,210.339 L943.48,125.534 L924.84,125.534 L924.84,105.842 L943.48,105.842 L943.48,69.61 L967.37,69.61 L967.37,105.842 L1004.91,105.842 L1004.91,125.534 L967.37,125.534 Z M1127.75,132.623 C1132.65,124.046 1139.83,117.044 1149.28,111.618 C1158.73,106.192 1169.5,103.479 1181.58,103.479 C1194.53,103.479 1206.17,106.542 1216.5,112.669 C1226.82,118.795 1234.96,127.459 1240.91,138.661 C1246.87,149.689 1249.84,162.554 1249.84,177.257 C1249.84,191.785 1246.87,204.738 1240.91,216.115 C1234.96,227.493 1226.74,236.332 1216.23,242.633 C1205.91,248.935 1194.35,252.085 1181.58,252.085 C1169.15,252.085 1158.21,249.372 1148.76,243.946 C1139.48,238.52 1132.48,231.606 1127.75,223.204 L1127.75,249.722 L1103.86,249.722 L1103.86,55.432 L1127.75,55.432 L1127.75,132.623 Z M1225.42,177.257 C1225.42,166.405 1223.24,156.953 1218.86,148.901 C1214.48,140.849 1208.53,134.723 1201.01,130.522 C1193.65,126.321 1185.52,124.221 1176.59,124.221 C1167.84,124.221 1159.7,126.409 1152.17,130.785 C1144.82,134.986 1138.87,141.2 1134.32,149.426 C1129.94,157.478 1127.75,166.842 1127.75,177.52 C1127.75,188.372 1129.94,197.911 1134.32,206.138 C1138.87,214.19 1144.82,220.404 1152.17,224.779 C1159.7,228.98 1167.84,231.081 1176.59,231.081 C1185.52,231.081 1193.65,228.98 1201.01,224.779 C1208.53,220.404 1214.48,214.19 1218.86,206.138 C1223.24,197.911 1225.42,188.284 1225.42,177.257 Z M1405.22,105.842 L1318.57,317.461 L1293.89,317.461 L1322.25,248.147 L1264.22,105.842 L1290.74,105.842 L1335.9,222.416 L1380.54,105.842 L1405.22,105.842 Z M1528.38,125.534 L1528.38,210.339 C1528.38,217.34 1529.86,222.329 1532.84,225.305 C1535.81,228.105 1540.98,229.505 1548.33,229.505 L1565.92,229.505 L1565.92,249.722 L1544.39,249.722 C1531.09,249.722 1521.11,246.659 1514.46,240.533 C1507.81,234.406 1504.48,224.342 1504.48,210.339 L1504.48,125.534 L1485.84,125.534 L1485.84,105.842 L1504.48,105.842 L1504.48,69.61 L1528.38,69.61 L1528.38,105.842 L1565.92,105.842 L1565.92,125.534 L1528.38,125.534 Z M1666.28,103.217 C1677.14,103.217 1686.94,105.58 1695.69,110.306 C1704.44,114.857 1711.27,121.77 1716.17,131.047 C1721.25,140.324 1723.78,151.614 1723.78,164.917 L1723.78,249.722 L1700.15,249.722 L1700.15,168.33 C1700.15,153.977 1696.57,143.037 1689.39,135.511 C1682.21,127.809 1672.41,123.958 1659.98,123.958 C1647.38,123.958 1637.32,127.897 1629.79,135.773 C1622.44,143.65 1618.76,155.115 1618.76,170.168 L1618.76,249.722 L1594.87,249.722 L1594.87,55.432 L1618.76,55.432 L1618.76,126.321 C1623.49,118.97 1629.96,113.281 1638.19,109.255 C1646.59,105.23 1655.96,103.217 1666.28,103.217 Z M1894.09,172.269 C1894.09,176.819 1893.83,181.633 1893.3,186.709 L1778.3,186.709 C1779.18,200.887 1783.99,212.002 1792.74,220.053 C1801.67,227.93 1812.43,231.868 1825.04,231.868 C1835.36,231.868 1843.94,229.505 1850.77,224.779 C1857.77,219.878 1862.67,213.402 1865.47,205.35 L1891.2,205.35 C1887.35,219.178 1879.65,230.468 1868.1,239.22 C1856.54,247.797 1842.19,252.085 1825.04,252.085 C1811.38,252.085 1799.13,249.022 1788.28,242.896 C1777.6,236.769 1769.2,228.105 1763.07,216.903 C1756.95,205.525 1753.89,192.398 1753.89,177.52 C1753.89,162.641 1756.86,149.601 1762.81,138.399 C1768.76,127.197 1777.08,118.62 1787.75,112.669 C1798.61,106.542 1811.03,103.479 1825.04,103.479 C1838.69,103.479 1850.77,106.455 1861.27,112.406 C1871.77,118.357 1879.82,126.584 1885.43,137.086 C1891.2,147.413 1894.09,159.141 1894.09,172.269 Z M1869.41,167.28 C1869.41,158.178 1867.4,150.389 1863.37,143.913 C1859.34,137.261 1853.83,132.273 1846.83,128.947 C1840,125.446 1832.39,123.696 1823.99,123.696 C1811.91,123.696 1801.58,127.547 1793.01,135.248 C1784.6,142.95 1779.79,153.627 1778.57,167.28 L1869.41,167.28 Z M2134.25,119.758 C2129.18,109.08 2121.83,100.854 2112.2,95.077 C2102.57,89.126 2091.37,86.151 2078.59,86.151 C2065.81,86.151 2054.26,89.126 2043.93,95.077 C2033.78,100.854 2025.73,109.255 2019.78,120.283 C2014,131.135 2011.11,143.738 2011.11,158.091 C2011.11,172.444 2014,185.046 2019.78,195.898 C2025.73,206.751 2033.78,215.152 2043.93,221.104 C2054.26,226.88 2065.81,229.768 2078.59,229.768 C2096.45,229.768 2111.15,224.429 2122.7,213.752 C2134.25,203.075 2140.99,188.634 2142.92,170.431 L2069.93,170.431 L2069.93,151.002 L2168.39,151.002 L2168.39,169.38 C2166.98,184.434 2162.26,198.261 2154.21,210.864 C2146.16,223.292 2135.57,233.181 2122.44,240.533 C2109.31,247.709 2094.69,251.297 2078.59,251.297 C2061.61,251.297 2046.12,247.359 2032.12,239.483 C2018.12,231.431 2007,220.316 1998.77,206.138 C1990.72,191.96 1986.7,175.944 1986.7,158.091 C1986.7,140.237 1990.72,124.221 1998.77,110.043 C2007,95.69 2018.12,84.575 2032.12,76.699 C2046.12,68.647 2061.61,64.621 2078.59,64.621 C2098.02,64.621 2115.17,69.435 2130.05,79.062 C2145.11,88.689 2156.05,102.254 2162.87,119.758 L2134.25,119.758 Z M2212.32,82.475 C2207.77,82.475 2203.91,80.899 2200.76,77.749 C2197.61,74.598 2196.04,70.747 2196.04,66.196 C2196.04,61.645 2197.61,57.795 2200.76,54.644 C2203.91,51.493 2207.77,49.918 2212.32,49.918 C2216.69,49.918 2220.37,51.493 2223.34,54.644 C2226.49,57.795 2228.07,61.645 2228.07,66.196 C2228.07,70.747 2226.49,74.598 2223.34,77.749 C2220.37,80.899 2216.69,82.475 2212.32,82.475 Z M2223.87,105.842 L2223.87,249.722 L2199.98,249.722 L2199.98,105.842 L2223.87,105.842 Z M2293.73,125.534 L2293.73,210.339 C2293.73,217.34 2295.22,222.329 2298.2,225.305 C2301.17,228.105 2306.34,229.505 2313.69,229.505 L2331.28,229.505 L2331.28,249.722 L2309.75,249.722 C2296.45,249.722 2286.47,246.659 2279.82,240.533 C2273.17,234.406 2269.84,224.342 2269.84,210.339 L2269.84,125.534 L2251.2,125.534 L2251.2,105.842 L2269.84,105.842 L2269.84,69.61 L2293.73,69.61 L2293.73,105.842 L2331.28,105.842 L2331.28,125.534 L2293.73,125.534 Z M2351.3,177.52 C2351.3,162.641 2354.28,149.689 2360.23,138.661 C2366.18,127.459 2374.4,118.795 2384.91,112.669 C2395.58,106.542 2407.75,103.479 2421.4,103.479 C2439.08,103.479 2453.61,107.768 2464.99,116.344 C2476.54,124.921 2484.15,136.824 2487.83,152.052 L2462.1,152.052 C2459.65,143.3 2454.83,136.386 2447.66,131.31 C2440.66,126.234 2431.9,123.696 2421.4,123.696 C2407.75,123.696 2396.72,128.422 2388.32,137.874 C2379.92,147.151 2375.72,160.366 2375.72,177.52 C2375.72,194.848 2379.92,208.239 2388.32,217.69 C2396.72,227.142 2407.75,231.868 2421.4,231.868 C2431.9,231.868 2440.66,229.418 2447.66,224.517 C2454.66,219.616 2459.47,212.614 2462.1,203.513 L2487.83,203.513 C2483.98,218.216 2476.28,230.031 2464.72,238.957 C2453.17,247.709 2438.73,252.085 2421.4,252.085 C2407.75,252.085 2395.58,249.022 2384.91,242.896 C2374.4,236.769 2366.18,228.105 2360.23,216.903 C2354.28,205.7 2351.3,192.573 2351.3,177.52 Z M2582.46,252.085 C2568.98,252.085 2556.73,249.022 2545.7,242.896 C2534.85,236.769 2526.27,228.105 2519.97,216.903 C2513.84,205.525 2510.78,192.398 2510.78,177.52 C2510.78,162.817 2513.93,149.864 2520.23,138.661 C2526.71,127.284 2535.46,118.62 2546.49,112.669 C2557.52,106.542 2569.86,103.479 2583.51,103.479 C2597.16,103.479 2609.5,106.542 2620.53,112.669 C2631.56,118.62 2640.22,127.197 2646.52,138.399 C2653,149.601 2656.24,162.641 2656.24,177.52 C2656.24,192.398 2652.91,205.525 2646.26,216.903 C2639.78,228.105 2630.94,236.769 2619.74,242.896 C2608.54,249.022 2596.11,252.085 2582.46,252.085 Z M2582.46,231.081 C2591.04,231.081 2599.09,229.068 2606.61,225.042 C2614.14,221.016 2620.18,214.977 2624.73,206.926 C2629.46,198.874 2631.82,189.072 2631.82,177.52 C2631.82,165.967 2629.54,156.165 2624.99,148.113 C2620.44,140.062 2614.49,134.111 2607.14,130.26 C2599.79,126.234 2591.82,124.221 2583.25,124.221 C2574.49,124.221 2566.44,126.234 2559.09,130.26 C2551.91,134.111 2546.14,140.062 2541.76,148.113 C2537.39,156.165 2535.2,165.967 2535.2,177.52 C2535.2,189.247 2537.3,199.137 2541.5,207.188 C2545.88,215.24 2551.65,221.279 2558.83,225.305 C2566.01,229.155 2573.88,231.081 2582.46,231.081 Z M2699.99,82.475 C2695.44,82.475 2691.59,80.899 2688.44,77.749 C2685.29,74.598 2683.71,70.747 2683.71,66.196 C2683.71,61.645 2685.29,57.795 2688.44,54.644 C2691.59,51.493 2695.44,49.918 2699.99,49.918 C2704.37,49.918 2708.04,51.493 2711.02,54.644 C2714.17,57.795 2715.74,61.645 2715.74,66.196 C2715.74,70.747 2714.17,74.598 2711.02,77.749 C2708.04,80.899 2704.37,82.475 2699.99,82.475 Z M2711.54,105.842 L2711.54,249.722 L2687.65,249.722 L2687.65,105.842 L2711.54,105.842 Z M2822.37,103.217 C2839.87,103.217 2854.05,108.555 2864.9,119.232 C2875.75,129.735 2881.18,144.963 2881.18,164.917 L2881.18,249.722 L2857.55,249.722 L2857.55,168.33 C2857.55,153.977 2853.96,143.037 2846.78,135.511 C2839.61,127.809 2829.81,123.958 2817.38,123.958 C2804.78,123.958 2794.71,127.897 2787.18,135.773 C2779.83,143.65 2776.16,155.115 2776.16,170.168 L2776.16,249.722 L2752.26,249.722 L2752.26,105.842 L2776.16,105.842 L2776.16,126.321 C2780.88,118.97 2787.27,113.281 2795.32,109.255 C2803.55,105.23 2812.56,103.217 2822.37,103.217 Z M2981.28,177.52 C2981.28,162.641 2984.25,149.689 2990.2,138.661 C2996.16,127.459 3004.38,118.795 3014.88,112.669 C3025.56,106.542 3037.73,103.479 3051.38,103.479 C3069.06,103.479 3083.59,107.768 3094.96,116.344 C3106.52,124.921 3114.13,136.824 3117.81,152.052 L3092.08,152.052 C3089.63,143.3 3084.81,136.386 3077.64,131.31 C3070.63,126.234 3061.88,123.696 3051.38,123.696 C3037.73,123.696 3026.7,128.422 3018.3,137.874 C3009.9,147.151 3005.7,160.366 3005.7,177.52 C3005.7,194.848 3009.9,208.239 3018.3,217.69 C3026.7,227.142 3037.73,231.868 3051.38,231.868 C3061.88,231.868 3070.63,229.418 3077.64,224.517 C3084.64,219.616 3089.45,212.614 3092.08,203.513 L3117.81,203.513 C3113.96,218.216 3106.25,230.031 3094.7,238.957 C3083.15,247.709 3068.71,252.085 3051.38,252.085 C3037.73,252.085 3025.56,249.022 3014.88,242.896 C3004.38,236.769 2996.16,228.105 2990.2,216.903 C2984.25,205.7 2981.28,192.573 2981.28,177.52 Z M3212.44,252.085 C3198.96,252.085 3186.71,249.022 3175.68,242.896 C3164.83,236.769 3156.25,228.105 3149.95,216.903 C3143.82,205.525 3140.76,192.398 3140.76,177.52 C3140.76,162.817 3143.91,149.864 3150.21,138.661 C3156.69,127.284 3165.44,118.62 3176.47,112.669 C3187.49,106.542 3199.83,103.479 3213.49,103.479 C3227.14,103.479 3239.48,106.542 3250.51,112.669 C3261.53,118.62 3270.2,127.197 3276.5,138.399 C3282.98,149.601 3286.21,162.641 3286.21,177.52 C3286.21,192.398 3282.89,205.525 3276.24,216.903 C3269.76,228.105 3260.92,236.769 3249.72,242.896 C3238.52,249.022 3226.09,252.085 3212.44,252.085 Z M3212.44,231.081 C3221.01,231.081 3229.06,229.068 3236.59,225.042 C3244.12,221.016 3250.16,214.977 3254.71,206.926 C3259.43,198.874 3261.8,189.072 3261.8,177.52 C3261.8,165.967 3259.52,156.165 3254.97,148.113 C3250.42,140.062 3244.47,134.111 3237.12,130.26 C3229.76,126.234 3221.8,124.221 3213.22,124.221 C3204.47,124.221 3196.42,126.234 3189.07,130.26 C3181.89,134.111 3176.12,140.062 3171.74,148.113 C3167.36,156.165 3165.18,165.967 3165.18,177.52 C3165.18,189.247 3167.28,199.137 3171.48,207.188 C3175.85,215.24 3181.63,221.279 3188.81,225.305 C3195.98,229.155 3203.86,231.081 3212.44,231.081 Z M3490.65,103.217 C3501.85,103.217 3511.83,105.58 3520.58,110.306 C3529.34,114.857 3536.25,121.77 3541.33,131.047 C3546.4,140.324 3548.94,151.614 3548.94,164.917 L3548.94,249.722 L3525.31,249.722 L3525.31,168.33 C3525.31,153.977 3521.72,143.037 3514.54,135.511 C3507.54,127.809 3498,123.958 3485.93,123.958 C3473.5,123.958 3463.61,127.984 3456.26,136.036 C3448.91,143.913 3445.23,155.377 3445.23,170.431 L3445.23,249.722 L3421.6,249.722 L3421.6,168.33 C3421.6,153.977 3418.01,143.037 3410.84,135.511 C3403.83,127.809 3394.29,123.958 3382.22,123.958 C3369.79,123.958 3359.9,127.984 3352.55,136.036 C3345.2,143.913 3341.52,155.377 3341.52,170.431 L3341.52,249.722 L3317.63,249.722 L3317.63,105.842 L3341.52,105.842 L3341.52,126.584 C3346.25,119.057 3352.55,113.281 3360.43,109.255 C3368.48,105.23 3377.32,103.217 3386.94,103.217 C3399.02,103.217 3409.7,105.93 3418.97,111.356 C3428.25,116.782 3435.17,124.746 3439.72,135.248 C3443.74,125.096 3450.39,117.22 3459.67,111.618 C3468.95,106.017 3479.27,103.217 3490.65,103.217 Z M3761.16,103.217 C3772.36,103.217 3782.33,105.58 3791.09,110.306 C3799.84,114.857 3806.75,121.77 3811.83,131.047 C3816.9,140.324 3819.44,151.614 3819.44,164.917 L3819.44,249.722 L3795.81,249.722 L3795.81,168.33 C3795.81,153.977 3792.22,143.037 3785.05,135.511 C3778.05,127.809 3768.51,123.958 3756.43,123.958 C3744,123.958 3734.11,127.984 3726.76,136.036 C3719.41,143.913 3715.73,155.377 3715.73,170.431 L3715.73,249.722 L3692.1,249.722 L3692.1,168.33 C3692.1,153.977 3688.52,143.037 3681.34,135.511 C3674.34,127.809 3664.8,123.958 3652.72,123.958 C3640.29,123.958 3630.4,127.984 3623.05,136.036 C3615.7,143.913 3612.02,155.377 3612.02,170.431 L3612.02,249.722 L3588.13,249.722 L3588.13,105.842 L3612.02,105.842 L3612.02,126.584 C3616.75,119.057 3623.05,113.281 3630.93,109.255 C3638.98,105.23 3647.82,103.217 3657.45,103.217 C3669.52,103.217 3680.2,105.93 3689.48,111.356 C3698.75,116.782 3705.67,124.746 3710.22,135.248 C3714.25,125.096 3720.9,117.22 3730.17,111.618 C3739.45,106.017 3749.78,103.217 3761.16,103.217 Z M3986.24,105.842 L3986.24,249.722 L3962.34,249.722 L3962.34,228.455 C3957.79,235.807 3951.4,241.583 3943.18,245.784 C3935.13,249.81 3926.2,251.823 3916.4,251.823 C3905.19,251.823 3895.13,249.547 3886.2,244.996 C3877.28,240.27 3870.19,233.269 3864.94,223.992 C3859.86,214.715 3857.32,203.425 3857.32,190.122 L3857.32,105.842 L3880.95,105.842 L3880.95,186.972 C3880.95,201.15 3884.54,212.089 3891.72,219.791 C3898.89,227.317 3908.7,231.081 3921.12,231.081 C3933.9,231.081 3943.97,227.142 3951.32,219.266 C3958.67,211.389 3962.34,199.924 3962.34,184.871 L3962.34,105.842 L3986.24,105.842 Z M4096.68,103.217 C4114.18,103.217 4128.36,108.555 4139.21,119.232 C4150.07,129.735 4155.49,144.963 4155.49,164.917 L4155.49,249.722 L4131.86,249.722 L4131.86,168.33 C4131.86,153.977 4128.27,143.037 4121.1,135.511 C4113.92,127.809 4104.12,123.958 4091.69,123.958 C4079.09,123.958 4069.02,127.897 4061.5,135.773 C4054.15,143.65 4050.47,155.115 4050.47,170.168 L4050.47,249.722 L4026.58,249.722 L4026.58,105.842 L4050.47,105.842 L4050.47,126.321 C4055.2,118.97 4061.59,113.281 4069.64,109.255 C4077.86,105.23 4086.88,103.217 4096.68,103.217 Z M4206.86,82.475 C4202.31,82.475 4198.46,80.899 4195.31,77.749 C4192.16,74.598 4190.58,70.747 4190.58,66.196 C4190.58,61.645 4192.16,57.795 4195.31,54.644 C4198.46,51.493 4202.31,49.918 4206.86,49.918 C4211.24,49.918 4214.91,51.493 4217.89,54.644 C4221.04,57.795 4222.61,61.645 4222.61,66.196 C4222.61,70.747 4221.04,74.598 4217.89,77.749 C4214.91,80.899 4211.24,82.475 4206.86,82.475 Z M4218.41,105.842 L4218.41,249.722 L4194.52,249.722 L4194.52,105.842 L4218.41,105.842 Z M4288.28,125.534 L4288.28,210.339 C4288.28,217.34 4289.76,222.329 4292.74,225.305 C4295.72,228.105 4300.88,229.505 4308.23,229.505 L4325.82,229.505 L4325.82,249.722 L4304.29,249.722 C4290.99,249.722 4281.01,246.659 4274.36,240.533 C4267.71,234.406 4264.38,224.342 4264.38,210.339 L4264.38,125.534 L4245.74,125.534 L4245.74,105.842 L4264.38,105.842 L4264.38,69.61 L4288.28,69.61 L4288.28,105.842 L4325.82,105.842 L4325.82,125.534 L4288.28,125.534 Z M4478.7,105.842 L4392.05,317.461 L4367.37,317.461 L4395.73,248.147 L4337.71,105.842 L4364.22,105.842 L4409.38,222.416 L4454.02,105.842 L4478.7,105.842 Z" id="Shape" fill-rule="nonzero"></path>
        </g>
    </g>
</svg>