<svg width="269" height="155" viewBox="0 0 269 155" fill="none" xmlns="http://www.w3.org/2000/svg">
<path d="M52.5955 30.4062C68.3296 26.5511 88.3222 30.8544 102.308 41.8369" stroke="white" stroke-width="2" stroke-miterlimit="10" stroke-linecap="round" stroke-linejoin="round"/>
<path d="M111.542 51.3403C111.901 51.8334 112.26 52.3713 112.618 52.8644C122.883 68.3296 122.256 89.0843 121.315 121.404C121.001 132.745 119.073 148.3 119.073 148.3L105.491 153.5L107.553 106.477L116.249 99.7082L116.115 82.2258L115.98 74.2915L110.377 77.3846L89.667 88.8602L73.619 82.0465L52.0126 72.8571L43.6749 69.3158L43.4956 69.2261L43.4508 72.0054V72.0502L43.0473 92.4911L69.9881 105.222L68.8226 153.276C68.8226 153.276 35.4268 144.58 19.7823 137.363C18.8858 136.959 17.5858 135.614 17.5858 135.614L17.3617 134.001L17.8548 117.28" stroke="white" stroke-width="2" stroke-miterlimit="10" stroke-linecap="round" stroke-linejoin="round"/>
<path d="M19.334 70.5261C19.334 70.3916 19.3788 70.2123 19.3788 70.0778C20.3202 62.1435 23.1442 54.523 27.7166 48.0231C29.4648 45.468 31.482 43.0922 33.7681 40.9405C34.7095 40.044 37.2198 37.713 40.7163 35.4717" stroke="white" stroke-width="2" stroke-miterlimit="10" stroke-linecap="round" stroke-linejoin="round"/>
<path d="M94.8219 86.2602L110.377 77.3845L108.135 87.4257L97.0632 89.5774L94.8219 86.2602Z" stroke="white" stroke-width="2" stroke-miterlimit="10" stroke-linecap="round" stroke-linejoin="round"/>
<path d="M73.6638 82.0017L69.5397 86.9326L55.5538 82.7189L52.0574 72.8123L73.6638 82.0017Z" stroke="white" stroke-width="2" stroke-miterlimit="10" stroke-linecap="round" stroke-linejoin="round"/>
<path d="M70.3915 106.253L80.7913 93.6565L95.1358 94.3737L104.549 108.449L103.518 141.307L97.8254 147.448L73.6638 146.373L69.5398 142.786L70.3915 106.253Z" stroke="white" stroke-width="2" stroke-miterlimit="10" stroke-linecap="round" stroke-linejoin="round"/>
<path d="M27.7167 47.9783C30.9442 47.1266 33.1407 47.5749 34.4855 48.0679C40.9405 50.3989 44.9749 60.0366 43.4956 71.9605" stroke="white" stroke-width="2" stroke-miterlimit="10" stroke-linecap="round" stroke-linejoin="round"/>
<path d="M88.2773 76.7569L145.028 14.7618L88.2773 50.7575L1 1L88.2773 76.7569Z" stroke="white" stroke-width="2" stroke-miterlimit="10" stroke-linecap="round" stroke-linejoin="round"/>
<path d="M116.07 82.2705C116.473 78.2809 116.608 73.2603 115.935 67.4777C115.263 61.6054 113.918 56.6745 112.618 52.8643" stroke="white" stroke-width="2" stroke-miterlimit="10" stroke-linecap="round" stroke-linejoin="round"/>
<path d="M17.6753 70.0776H19.4235H23.7717C28.2544 70.0776 31.9301 79.805 32.1991 92.0875C32.1991 92.6254 32.1991 93.1185 32.1991 93.6564C32.1991 106.656 28.4337 117.235 23.7717 117.235H22.6062H17.8098H17.6753" stroke="white" stroke-width="2" stroke-miterlimit="10" stroke-linecap="round" stroke-linejoin="round"/>
<path d="M17.6754 117.235C22.3298 117.235 26.1028 106.679 26.1028 93.6564C26.1028 80.6342 22.3298 70.0776 17.6754 70.0776C13.0211 70.0776 9.24805 80.6342 9.24805 93.6564C9.24805 106.679 13.0211 117.235 17.6754 117.235Z" stroke="white" stroke-width="2" stroke-miterlimit="10" stroke-linecap="round" stroke-linejoin="round"/>
<path d="M82.2258 109.928H77.519V133.014H82.2258V109.928Z" stroke="white" stroke-width="2" stroke-miterlimit="10" stroke-linecap="round" stroke-linejoin="round"/>
<path d="M92.8047 110.467H88.0979V133.552H92.8047V110.467Z" stroke="white" stroke-width="2" stroke-miterlimit="10" stroke-linecap="round" stroke-linejoin="round"/>
<path d="M101.725 110.96H97.0186V134.045H101.725V110.96Z" stroke="white" stroke-width="2" stroke-miterlimit="10" stroke-linecap="round" stroke-linejoin="round"/>
<path d="M139.828 112.708C143.862 102.398 147.135 92.4461 149.645 82.8532L162.196 80.7463C160.762 89.0841 160.134 98.9459 160.269 110.332L151.528 112.349L152.155 107.194L149.376 107.732L148.524 111.363L139.828 112.708ZM152.783 101.636L154.666 86.0359H154.621L150.721 101.994L152.783 101.636Z" fill="#6DC5A0"/>
<path d="M165.334 83.1222L172.462 81.6877C172.417 82.5394 172.372 83.7498 172.372 85.3187C172.372 89.0841 172.506 92.3565 172.731 95.1805C172.865 96.7943 173.089 98.0943 173.358 99.1253L176.182 83.0325L183.265 81.7326C180.396 92.7599 178.513 102.353 177.661 110.422L171.117 112.259C171.072 112.215 170.893 111.722 170.579 110.825L168.427 104.729C168.069 103.742 167.844 103.115 167.8 102.846C167.217 106.073 166.769 109.256 166.455 112.304L159.91 114.187L165.334 83.1222Z" fill="#6DC5A0"/>
<path d="M195.458 79.8499C198.371 79.8499 200.433 81.4636 201.644 84.736C202.271 86.3945 202.585 88.2773 202.585 90.2496C202.585 92.1772 202.316 94.284 201.733 96.5253C200.702 100.38 198.954 103.922 196.444 107.194C193.396 111.139 190.168 113.156 186.761 113.156C183.803 113.156 181.741 111.542 180.486 108.27C179.858 106.656 179.589 104.863 179.589 102.891C179.589 100.918 179.903 98.8115 180.486 96.5253C181.517 92.6254 183.265 89.0841 185.73 85.8118C188.734 81.8671 192.006 79.8499 195.458 79.8499ZM193.933 90.1151C192.409 90.1151 190.885 91.3703 189.316 93.8357C188.061 95.8081 187.165 97.6908 186.672 99.5735C186.403 100.56 186.313 101.456 186.313 102.263C186.313 103.384 186.582 104.325 187.12 105.042C187.747 105.849 188.644 106.253 189.765 106.253C191.289 106.253 192.678 105.446 193.933 103.832C194.92 102.532 195.637 101.008 196.085 99.2598C196.623 97.1977 196.713 95.1805 196.399 93.1634C196.085 91.1013 195.278 90.1151 193.933 90.1151Z" fill="#6DC5A0"/>
<path d="M205.006 83.1222L212.133 81.6877C212.088 82.5394 212.043 83.7498 212.043 85.3187C212.043 89.0841 212.178 92.3565 212.402 95.1805C212.537 96.7943 212.761 98.0943 213.03 99.1253L215.854 83.0325L222.936 81.7326C220.067 92.7599 218.185 102.353 217.333 110.422L210.788 112.259C210.744 112.215 210.564 111.722 210.25 110.825L208.099 104.729C207.74 103.742 207.516 103.115 207.471 102.846C206.888 106.073 206.44 109.256 206.126 112.304L199.537 114.277L205.006 83.1222Z" fill="#6DC5A0"/>
<path d="M250.684 80.5222C246.739 89.8013 243.198 99.7528 240.06 110.377L226.792 112.439C227.643 108.404 228.136 103.473 228.36 97.646C228.45 92.6702 228.54 87.7393 228.674 82.7635L238.671 80.836L234.367 108.091H234.412L241.719 81.9118L250.684 80.5222Z" fill="white"/>
<path d="M267.718 89.4428C266.642 89.8014 265.387 90.2048 263.908 90.6979L260.187 91.9531C260.187 90.6083 259.739 89.9359 258.887 89.9359C257.677 89.9359 256.422 90.5186 255.211 91.7289C254.36 92.6255 254.001 93.4772 254.136 94.2841C254.225 94.822 254.853 95.0909 256.018 95.0909C256.646 95.0909 257.498 95.0013 258.529 94.822C259.963 94.553 261.218 94.4185 262.339 94.4185C265.118 94.4185 266.777 95.2254 267.225 96.884C267.359 97.3771 267.404 97.9598 267.404 98.4977C267.404 100.336 266.597 102.263 265.028 104.415C262.966 107.194 260.053 109.48 256.332 111.363C254.36 112.349 252.432 112.842 250.549 112.842C248.801 112.842 247.143 112.439 245.439 111.587C246.291 109.884 247.591 107.373 249.429 104.011C250.505 104.639 251.625 104.953 252.836 104.953C253.374 104.953 253.911 104.863 254.494 104.729C255.525 104.505 256.511 104.191 257.453 103.742C258.798 103.115 259.47 102.487 259.47 101.815C259.47 101.098 258.798 100.739 257.408 100.739C256.467 100.739 255.122 100.918 253.329 101.232C251.536 101.546 250.191 101.725 249.249 101.725C248.039 101.725 247.053 101.546 246.425 101.143C245.125 100.38 244.588 99.2598 244.812 97.6909C245.26 94.5082 247.636 90.8772 251.939 86.7084C256.377 82.4498 260.187 80.2085 263.37 79.9844C266.463 79.8051 268.032 81.8223 268.032 85.9463C267.942 87.067 267.852 88.1876 267.718 89.4428Z" fill="white"/>
<path d="M132.566 149.152C136.466 139.29 139.425 129.249 141.487 119.073L151.842 117.37L150.362 133.238L154.397 118.58L164.348 116.832C163.183 126.245 162.555 134.718 162.555 142.248C162.555 143.728 162.555 145.252 162.555 146.686L153.724 148.255L155.293 129.338L149.6 150.317L144.849 150.945L147.718 124.318L141.531 147.941L132.566 149.152Z" fill="#D21515"/>
<path d="M179.455 115.083C182.503 115.083 184.655 116.787 185.955 120.194C186.627 121.942 186.941 123.869 186.941 125.976C186.941 127.994 186.627 130.19 186.044 132.566C184.968 136.6 183.131 140.321 180.531 143.728C177.348 147.897 173.941 149.959 170.355 149.959C167.262 149.959 165.065 148.255 163.765 144.848C163.138 143.19 162.824 141.307 162.824 139.245C162.824 137.183 163.138 134.986 163.765 132.566C164.841 128.487 166.679 124.766 169.234 121.359C172.462 117.146 175.869 115.083 179.455 115.083ZM177.886 125.797C176.317 125.797 174.703 127.097 173.045 129.697C171.7 131.759 170.803 133.731 170.265 135.704C169.996 136.735 169.862 137.676 169.862 138.528C169.862 139.693 170.131 140.679 170.714 141.442C171.386 142.293 172.282 142.697 173.493 142.697C175.107 142.697 176.541 141.845 177.841 140.142C178.872 138.797 179.634 137.183 180.082 135.345C180.62 133.193 180.755 131.042 180.441 128.935C180.127 126.828 179.275 125.797 177.886 125.797Z" fill="#D21515"/>
<path d="M189.137 118.356L196.578 116.966C194.516 124.945 192.903 132.297 191.782 139.066L199.402 137.9L198.775 145.924C194.875 146.283 189.899 147.269 183.848 148.928L189.137 118.356Z" fill="#D21515"/>
<path d="M215.316 115.083C218.364 115.083 220.516 116.787 221.816 120.194C222.488 121.942 222.802 123.869 222.802 125.976C222.802 127.994 222.488 130.19 221.905 132.566C220.83 136.6 218.992 140.321 216.392 143.728C213.209 147.897 209.802 149.959 206.216 149.959C203.123 149.959 200.927 148.255 199.627 144.848C198.999 143.19 198.685 141.307 198.685 139.245C198.685 137.183 198.999 134.986 199.627 132.566C200.703 128.487 202.54 124.766 205.095 121.359C208.278 117.146 211.685 115.083 215.316 115.083ZM213.747 125.797C212.178 125.797 210.564 127.097 208.906 129.697C207.561 131.759 206.664 133.731 206.127 135.704C205.858 136.735 205.723 137.676 205.723 138.528C205.723 139.693 205.992 140.679 206.575 141.442C207.247 142.293 208.144 142.697 209.354 142.697C210.968 142.697 212.402 141.845 213.702 140.142C214.733 138.797 215.495 137.183 215.944 135.345C216.481 133.193 216.616 131.042 216.302 128.935C215.988 126.828 215.137 125.797 213.747 125.797Z" fill="#D21515"/>
<path d="M235.398 116.249C238.402 116.249 240.598 117.863 242.033 121.135L237.147 126.514C236.474 125.842 235.712 125.483 234.86 125.483C233.336 125.483 231.767 126.783 230.109 129.428C228.764 131.58 227.867 133.597 227.464 135.48C227.24 136.376 227.15 137.183 227.15 137.9C227.15 139.828 227.867 141.173 229.257 141.89C229.705 142.114 230.198 142.248 230.736 142.248C232.216 142.248 233.785 141.128 235.443 138.931L236.833 144.086C233.964 147.269 231.095 148.838 228.136 148.838C225.133 148.838 222.937 147.269 221.547 144.086C220.695 142.248 220.292 140.186 220.292 137.9C220.292 136.242 220.516 134.449 220.919 132.566C221.771 128.711 223.43 125.214 225.85 122.076C228.809 118.177 231.947 116.249 235.398 116.249Z" fill="#D21515"/>
<path d="M242.346 118.356L250.326 116.966C248.891 122.48 247.726 127.501 246.829 132.028L250.415 131.266L252.612 118.356L260.591 116.966C257.543 128.756 255.615 138.752 254.808 147L247.367 148.883L249.339 137.138C248.532 137.318 247.322 137.587 245.664 137.9C245.126 141.442 244.722 144.49 244.498 147L237.057 148.883L242.346 118.356Z" fill="#D21515"/>
</svg>
