<svg width="86" height="26" viewBox="0 0 86 26" fill="none" xmlns="http://www.w3.org/2000/svg">
<path d="M30.7443 13.4517H35.2523C35.2523 13.9183 35.2292 14.35 35.1946 14.735C35.16 15.12 35.0793 15.47 34.964 15.7967C34.8026 16.2633 34.5836 16.6717 34.3068 17.0333C34.0301 17.3833 33.6958 17.6867 33.3268 17.92C32.9579 18.1533 32.5428 18.34 32.0932 18.4567C31.6435 18.585 31.1708 18.6433 30.6751 18.6433C29.9948 18.6433 29.3723 18.5267 28.8073 18.305C28.2539 18.0833 27.7697 17.7567 27.3661 17.36C26.9626 16.94 26.6513 16.45 26.4323 15.8783C26.2132 15.295 26.0979 14.665 26.0979 13.965C26.0979 13.2767 26.2017 12.6467 26.4207 12.075C26.6398 11.4917 26.9626 11.0017 27.3546 10.5933C27.7697 10.185 28.2539 9.87001 28.8304 9.64834C29.4068 9.42667 30.041 9.31001 30.7443 9.31001C31.6551 9.31001 32.4506 9.50834 33.1424 9.90501C33.8341 10.3017 34.376 10.92 34.7796 11.76L32.6235 12.6583C32.4275 12.1683 32.1624 11.83 31.8396 11.62C31.5283 11.41 31.1593 11.305 30.7558 11.305C30.4214 11.305 30.1101 11.375 29.8334 11.5033C29.5567 11.6317 29.3146 11.8067 29.1186 12.0517C28.9226 12.285 28.7727 12.5767 28.6574 12.9033C28.5537 13.2417 28.496 13.615 28.496 14.0233C28.496 14.3967 28.5421 14.7467 28.6344 15.0617C28.7381 15.3767 28.8765 15.6567 29.0725 15.89C29.2685 16.1233 29.5106 16.31 29.7873 16.4383C30.0755 16.5667 30.4099 16.625 30.7788 16.625C30.9979 16.625 31.217 16.6017 31.4245 16.555C31.632 16.4967 31.8165 16.415 31.9779 16.31C32.1508 16.1933 32.2892 16.0417 32.393 15.8667C32.4967 15.6917 32.5774 15.47 32.612 15.2133H30.7443V13.4517ZM46.4588 11.41V18.6433H44.0377V11.41H42.0777V9.31001H48.4188V11.41H46.4588ZM56.8353 12.5067C56.305 11.8533 55.6593 11.5267 54.8868 11.5267C54.541 11.5267 54.2297 11.585 53.9299 11.7133C53.6417 11.8417 53.3996 12.0167 53.1805 12.2267C52.973 12.4367 52.8 12.6933 52.6847 12.9967C52.5694 13.3 52.5118 13.615 52.5118 13.965C52.5118 14.315 52.5694 14.6417 52.6847 14.945C52.8116 15.2483 52.973 15.505 53.1805 15.7267C53.3996 15.9483 53.6532 16.1233 53.9414 16.24C54.2297 16.3683 54.541 16.4267 54.8753 16.4267C55.6017 16.4267 56.2588 16.1117 56.8353 15.4817V18.2117L56.6047 18.2933C56.2588 18.4217 55.936 18.5033 55.6247 18.5617C55.325 18.62 55.0252 18.655 54.7254 18.655C54.1259 18.655 53.5379 18.5383 52.9845 18.3167C52.4311 18.0833 51.9468 17.7567 51.5203 17.3367C51.1052 16.9167 50.7593 16.415 50.5057 15.8433C50.252 15.26 50.1252 14.63 50.1252 13.9533C50.1252 13.2767 50.252 12.6467 50.4941 12.0867C50.7478 11.515 51.0821 11.025 51.5087 10.6167C51.9353 10.1967 52.4311 9.88167 52.9845 9.64834C53.5379 9.41501 54.1259 9.29834 54.737 9.29834C55.0828 9.29834 55.4287 9.33334 55.7631 9.41501C56.109 9.48501 56.4664 9.60167 56.8353 9.75334V12.5067ZM61.5854 13.9767C61.5854 14.3267 61.6546 14.6533 61.7814 14.9567C61.9083 15.26 62.0927 15.5167 62.3118 15.7383C62.5308 15.96 62.796 16.135 63.0958 16.2517C63.3956 16.3683 63.7184 16.4267 64.0527 16.4267C64.3871 16.4267 64.6984 16.3683 64.9981 16.2517C65.2979 16.1233 65.5631 15.9483 65.7937 15.7383C66.0243 15.5167 66.2087 15.26 66.3356 14.9567C66.4624 14.6533 66.5316 14.3383 66.5316 13.9767C66.5316 13.615 66.4624 13.3 66.3356 12.9967C66.2087 12.6933 66.0243 12.4367 65.7937 12.215C65.5746 11.9933 65.3094 11.83 64.9981 11.7133C64.6984 11.585 64.3871 11.5267 64.0527 11.5267C63.7184 11.5267 63.4071 11.585 63.0958 11.7133C62.796 11.83 62.5424 12.005 62.3118 12.215C62.0927 12.4367 61.9083 12.6933 61.7814 12.9967C61.6546 13.3 61.5854 13.6267 61.5854 13.9767ZM59.2104 13.9767C59.2104 13.3233 59.3257 12.705 59.5678 12.145C59.8099 11.5733 60.1443 11.0717 60.5709 10.6517C60.9974 10.2317 61.5047 9.89334 62.0927 9.66001C62.6923 9.41501 63.3494 9.29834 64.0527 9.29834C64.756 9.29834 65.4132 9.41501 66.0012 9.66001C66.6007 9.89334 67.108 10.22 67.5346 10.6517C67.9727 11.0717 68.3071 11.5733 68.5492 12.145C68.7913 12.705 68.9066 13.3233 68.9066 13.9767C68.9066 14.63 68.7913 15.2483 68.5492 15.82C68.3071 16.38 67.9727 16.8817 67.5346 17.3017C67.108 17.7217 66.6007 18.06 66.0012 18.305C65.4017 18.5383 64.756 18.655 64.0527 18.655C63.3379 18.655 62.6807 18.5383 62.0927 18.305C61.5047 18.06 60.9974 17.7333 60.5709 17.3017C60.1443 16.8817 59.8099 16.38 59.5678 15.82C59.3257 15.2483 59.2104 14.6417 59.2104 13.9767ZM73.6683 9.31001V18.6433H71.2471V9.31001H73.6683ZM39.7718 9.31001V18.6433H37.3506V9.31001H39.7718ZM76.2047 18.6433V9.31001H78.5106L83.0071 15.015V9.31001H85.4283V18.6433H83.0993L78.6259 12.9383V18.6433H76.2047Z" fill="white"/>
<path fill-rule="evenodd" clip-rule="evenodd" d="M16.8206 9.85101C17.6225 10.9885 18.0579 12.3698 18.0465 13.7627C18.0465 15.1324 17.6111 16.5021 16.8206 17.6163L18.4932 18.9047C19.5587 17.4189 20.143 15.6083 20.143 13.7743C20.1545 11.8359 19.5243 9.93233 18.3672 8.40015L17.408 9.27515L16.8206 9.85101Z" fill="#15EBB7"/>
<path fill-rule="evenodd" clip-rule="evenodd" d="M19.9826 20.0458L14.3574 15.7163C14.7584 15.1823 14.9875 14.5324 15.0218 13.8591C15.0448 13.1859 14.873 12.5243 14.5178 11.9555L17.2101 9.4948L20.0285 6.82512C20.2118 6.65097 20.2232 6.34919 20.0399 6.16346L19.6504 5.76882C17.6455 3.71433 14.9417 2.51877 12.1004 2.42592L12.1119 0.858935C12.1233 0.754472 12.1119 0.650009 12.089 0.545545C12.0546 0.441082 12.0087 0.348215 11.94 0.266968C11.8713 0.185722 11.791 0.12768 11.688 0.0812466C11.5963 0.034825 11.4932 0.0116082 11.3901 0.0116082C11.287 0.0116082 11.1839 0.034825 11.0923 0.0812466C11.0006 0.12768 10.9089 0.185722 10.8402 0.266968C10.7714 0.348215 10.7141 0.441082 10.6913 0.533937C10.6569 0.6384 10.6454 0.742863 10.6683 0.847326L10.6569 2.46074C9.98093 2.53038 9.30496 2.65806 8.65194 2.85539L8.66335 0.847326C8.67488 0.742863 8.66335 0.6384 8.64052 0.533937C8.60616 0.429473 8.56028 0.336607 8.49156 0.25536C8.42285 0.174113 8.3426 0.116072 8.23953 0.0696384C8.14787 0.0232168 8.04468 0 7.94161 0C7.83854 0 7.73535 0.0232168 7.6438 0.0696384C7.55215 0.116072 7.46049 0.174113 7.39166 0.25536C7.32294 0.336607 7.26564 0.429473 7.24281 0.522328C7.20834 0.626792 7.19693 0.731255 7.21987 0.83573L7.18551 3.40094C4.87123 4.44558 2.96942 6.26793 1.8123 8.55458C0.655171 10.8412 0.288547 13.4645 0.792648 15.9832C1.29674 18.502 2.63718 20.7771 4.58481 22.4253C6.53249 24.0735 8.98421 25.0021 11.5161 25.0486L19.7076 25.0833C19.9598 25.0833 20.1659 24.8744 20.1659 24.619V20.4288C20.1659 20.278 20.0972 20.1387 19.9826 20.0458ZM11.6766 23.0288C9.66018 23.0173 7.70099 22.3324 6.10855 21.0904C4.51607 19.8368 3.37041 18.0842 2.85486 16.1109C2.33931 14.1377 2.48824 12.0367 3.25584 10.1564C4.03489 8.27598 5.39823 6.6974 7.15115 5.67596L7.13962 8.72865C7.12821 8.83318 7.13962 8.9376 7.16257 9.04202C7.19692 9.14655 7.24281 9.23942 7.31153 9.32062C7.38024 9.40193 7.46049 9.45992 7.56356 9.50635C7.65522 9.55278 7.75829 9.576 7.86148 9.576C7.96455 9.576 8.06763 9.55278 8.15929 9.50635C8.25094 9.45992 8.3426 9.40193 8.41132 9.32062C8.48003 9.23942 8.53733 9.14655 8.56028 9.05368C8.59464 8.94927 8.60616 8.84473 8.58322 8.74032L8.59464 4.99113C9.60288 4.6197 10.6683 4.44558 11.7453 4.44558C13.7273 4.44558 15.652 5.1072 17.2215 6.31436C17.3361 6.40722 17.3475 6.56972 17.2445 6.67418L12.9597 10.6555C12.5701 10.493 12.1463 10.4001 11.7223 10.4001C11.2526 10.4001 10.7829 10.493 10.3476 10.6903C9.91222 10.8877 9.53405 11.1778 9.22472 11.5376C8.9155 11.8974 8.68629 12.3269 8.54886 12.7797C8.41132 13.2439 8.37696 13.7198 8.44568 14.1957C8.51451 14.6716 8.67488 15.1243 8.92691 15.5306C9.17895 15.9368 9.52264 16.2734 9.91222 16.5404C10.3132 16.7957 10.76 16.9699 11.2297 17.0395C11.6994 17.1092 12.1806 17.0743 12.6274 16.935L18.1038 21.1485C18.1611 21.195 18.1954 21.2645 18.1954 21.3341L18.1839 22.8199C18.1839 22.9476 18.0808 23.0521 17.9548 23.0521L11.6766 23.0288ZM13.017 13.743C13.017 13.9984 12.9367 14.2538 12.7993 14.4743C12.6503 14.6949 12.4556 14.8573 12.215 14.9618C11.9744 15.0662 11.7109 15.0894 11.4703 15.0315C11.2297 14.9734 10.9891 14.8573 10.8057 14.6717C10.6225 14.4859 10.4964 14.2537 10.4506 13.9984C10.4049 13.743 10.4277 13.476 10.5309 13.2439C10.634 13.0002 10.7943 12.8029 11.012 12.6519C11.2297 12.5126 11.4817 12.4314 11.7337 12.4314C12.0774 12.4314 12.4097 12.5707 12.6503 12.8261C12.8794 13.0582 13.017 13.3832 13.017 13.743Z" fill="white"/>
</svg>
