<svg width="283" height="270" viewBox="0 0 283 270" fill="none" xmlns="http://www.w3.org/2000/svg">
<mask id="mask0" style="mask-type:alpha" maskUnits="userSpaceOnUse" x="0" y="0" width="283" height="270">
<rect width="282.589" height="269.976" fill="#C4C4C4"/>
</mask>
<g mask="url(#mask0)">
<path d="M159.84 67.021L160.055 68.135L160.732 67.2246L199.865 14.61L183.127 78.0096L182.838 79.1065L183.843 78.5801L241.928 48.1548L199.341 98.0139L198.604 98.8766L199.738 98.8383L265.272 96.6285L205.269 123.072L204.231 123.529L205.269 123.987L265.272 150.43L199.738 148.22L198.604 148.182L199.341 149.045L241.928 198.904L183.843 168.479L182.838 167.952L183.127 169.049L199.865 232.449L160.732 179.834L160.055 178.924L159.84 180.038L147.412 244.421L134.983 180.038L134.768 178.924L134.091 179.834L94.9589 232.449L111.696 169.049L111.986 167.952L110.981 168.479L52.895 198.904L95.4827 149.045L96.2196 148.182L95.0857 148.22L29.5513 150.43L89.5546 123.987L90.5928 123.529L89.5546 123.072L29.5513 96.6285L95.0857 98.8383L96.2196 98.8766L95.4827 98.0139L52.895 48.1548L110.981 78.5801L111.986 79.1065L111.696 78.0096L94.9589 14.61L134.091 67.2246L134.768 68.135L134.983 67.021L147.412 2.63798L159.84 67.021Z" fill="#FFF8F8" stroke="#070500"/>
</g>
</svg>
