<svg width="200" height="116" viewBox="0 0 200 116" fill="none" xmlns="http://www.w3.org/2000/svg">
<path d="M79 114.5L89.5 111L91.5 75L89.5 51.5L88 47.5L83.5 38.5L106 13.5L77.5 31H74C66.5 23.5 64 26 56.5 23C50.5 20.6 43 22 40 23L2.5 2L30.5 26C30.1667 26.6667 28.2 29.1 23 33.5C17.8 37.9 15.5 47.3333 15 51.5L11.5 53L8 62V80.5L13.5 88V95.5V102L52 114.5V107L56.5 109.5H74L79 105.5V114.5Z" fill="white" stroke="#262626"/>
<path d="M39.4761 22.9109C51.1997 20.0385 66.0965 23.2449 76.5175 31.4281" stroke="#262626" stroke-width="2" stroke-miterlimit="10" stroke-linecap="round" stroke-linejoin="round"/>
<path d="M83.3982 38.509C83.6654 38.8764 83.9326 39.2772 84.1998 39.6447C91.8486 51.1679 91.381 66.6325 90.6796 90.7144C90.4458 99.1648 89.0095 110.755 89.0095 110.755L78.8891 114.629L80.4255 79.5919L86.9053 74.5484L86.8051 61.5221L86.7049 55.6102L82.5298 57.9149L67.0986 66.4654L55.1412 61.3885L39.042 54.5414L32.8295 51.9027L32.6959 51.8359L32.6625 53.9068V53.9402L32.3619 69.1709L52.4357 78.6567L51.5673 114.462C51.5673 114.462 26.6838 107.983 15.0269 102.605C14.3589 102.304 13.3903 101.302 13.3903 101.302L13.2233 100.1L13.5907 87.6415" stroke="#262626" stroke-width="2" stroke-miterlimit="10" stroke-linecap="round" stroke-linejoin="round"/>
<path d="M14.6927 52.8046C14.6927 52.7044 14.7261 52.5708 14.7261 52.4706C15.4276 46.5587 17.5318 40.8806 20.9387 36.0374C22.2413 34.1336 23.7443 32.3634 25.4478 30.7601C26.1492 30.0921 28.0196 28.3553 30.6249 26.6852" stroke="#262626" stroke-width="2" stroke-miterlimit="10" stroke-linecap="round" stroke-linejoin="round"/>
<path d="M70.9396 64.5283L82.5296 57.9149L80.8596 65.3967L72.6096 66.9999L70.9396 64.5283Z" stroke="#262626" stroke-width="2" stroke-miterlimit="10" stroke-linecap="round" stroke-linejoin="round"/>
<path d="M55.1743 61.3551L52.1015 65.0292L41.6805 61.8896L39.0752 54.508L55.1743 61.3551Z" stroke="#262626" stroke-width="2" stroke-miterlimit="10" stroke-linecap="round" stroke-linejoin="round"/>
<path d="M52.7362 79.425L60.4851 70.0394L71.1734 70.5738L78.1875 81.0616L77.4193 105.544L73.1774 110.12L55.1744 109.319L52.1016 106.647L52.7362 79.425Z" stroke="#262626" stroke-width="2" stroke-miterlimit="10" stroke-linecap="round" stroke-linejoin="round"/>
<path d="M20.9388 36.004C23.3437 35.3693 24.9803 35.7034 25.9824 36.0708C30.7921 37.8076 33.7981 44.9888 32.6959 53.8734" stroke="#262626" stroke-width="2" stroke-miterlimit="10" stroke-linecap="round" stroke-linejoin="round"/>
<path d="M66.063 57.4472L108.348 11.254L66.063 38.0748L1.03174 1L66.063 57.4472Z" stroke="#262626" stroke-width="2" stroke-miterlimit="10" stroke-linecap="round" stroke-linejoin="round"/>
<path d="M86.7716 61.5555C87.0722 58.5829 87.1724 54.842 86.6714 50.5333C86.1703 46.1578 85.1683 42.4837 84.1997 39.6447" stroke="#262626" stroke-width="2" stroke-miterlimit="10" stroke-linecap="round" stroke-linejoin="round"/>
<path d="M13.4569 52.4706H14.7595H17.9994C21.3395 52.4706 24.0783 59.7185 24.2787 68.8703C24.2787 69.2711 24.2787 69.6386 24.2787 70.0394C24.2787 79.7256 21.4731 87.6081 17.9994 87.6081H17.131H13.5571H13.4569" stroke="#262626" stroke-width="2" stroke-miterlimit="10" stroke-linecap="round" stroke-linejoin="round"/>
<path d="M13.4569 87.6081C16.9249 87.6081 19.7363 79.7423 19.7363 70.0394C19.7363 60.3364 16.9249 52.4706 13.4569 52.4706C9.98897 52.4706 7.17761 60.3364 7.17761 70.0394C7.17761 79.7423 9.98897 87.6081 13.4569 87.6081Z" stroke="#262626" stroke-width="2" stroke-miterlimit="10" stroke-linecap="round" stroke-linejoin="round"/>
<path d="M61.5541 82.1638H58.047V99.3652H61.5541V82.1638Z" stroke="#262626" stroke-width="2" stroke-miterlimit="10" stroke-linecap="round" stroke-linejoin="round"/>
<path d="M69.4365 82.5646H65.9294V99.766H69.4365V82.5646Z" stroke="#262626" stroke-width="2" stroke-miterlimit="10" stroke-linecap="round" stroke-linejoin="round"/>
<path d="M76.0834 82.9321H72.5763V100.133H76.0834V82.9321Z" stroke="#262626" stroke-width="2" stroke-miterlimit="10" stroke-linecap="round" stroke-linejoin="round"/>
<path d="M104.474 84.2346C107.48 76.5524 109.918 69.1375 111.789 61.9897L121.141 60.4199C120.072 66.6324 119.604 73.9806 119.705 82.4643L113.191 83.9674L113.659 80.1263L111.588 80.5271L110.954 83.2326L104.474 84.2346ZM114.127 75.9846L115.529 64.3611H115.496L112.59 76.2518L114.127 75.9846Z" fill="#11BC92"/>
<path d="M123.479 62.1902L128.79 61.1213C128.756 61.756 128.723 62.6578 128.723 63.8268C128.723 66.6325 128.823 69.0707 128.99 71.175C129.09 72.3774 129.257 73.346 129.458 74.1142L131.562 62.1234L136.839 61.1547C134.701 69.3713 133.299 76.5191 132.664 82.5312L127.788 83.9006C127.754 83.8672 127.62 83.4998 127.387 82.8318L125.783 78.2893C125.516 77.5545 125.349 77.0869 125.316 76.8865C124.882 79.2913 124.548 81.6628 124.314 83.934L119.437 85.3369L123.479 62.1902Z" fill="#11BC92"/>
<path d="M145.924 59.7519C148.095 59.7519 149.632 60.9543 150.533 63.3926C151.001 64.6284 151.235 66.0312 151.235 67.5009C151.235 68.9371 151.034 70.5069 150.6 72.177C149.832 75.0494 148.529 77.6881 146.659 80.1263C144.388 83.0656 141.983 84.5686 139.444 84.5686C137.24 84.5686 135.704 83.3662 134.768 80.928C134.301 79.7255 134.1 78.3895 134.1 76.9199C134.1 75.4502 134.334 73.8804 134.768 72.177C135.537 69.2711 136.839 66.6324 138.676 64.1942C140.914 61.2549 143.352 59.7519 145.924 59.7519ZM144.789 67.4007C143.653 67.4007 142.517 68.3359 141.348 70.1729C140.413 71.6426 139.745 73.0454 139.378 74.4482C139.177 75.183 139.11 75.851 139.11 76.4523C139.11 77.2873 139.311 77.9887 139.712 78.5231C140.179 79.1243 140.847 79.4249 141.682 79.4249C142.818 79.4249 143.853 78.8237 144.789 77.6213C145.523 76.6527 146.058 75.517 146.392 74.2144C146.793 72.678 146.859 71.1749 146.626 69.6719C146.392 68.1355 145.791 67.4007 144.789 67.4007Z" fill="#11BC92"/>
<path d="M153.038 62.1902L158.349 61.1213C158.316 61.756 158.282 62.6578 158.282 63.8268C158.282 66.6325 158.383 69.0707 158.55 71.175C158.65 72.3774 158.817 73.346 159.017 74.1142L161.121 62.1234L166.399 61.1547C164.261 69.3713 162.858 76.5191 162.224 82.5312L157.347 83.9006C157.314 83.8672 157.18 83.4998 156.946 82.8318L155.343 78.2893C155.076 77.5545 154.909 77.0869 154.875 76.8865C154.441 79.2913 154.107 81.6628 153.873 83.934L148.964 85.4037L153.038 62.1902Z" fill="#11BC92"/>
<path d="M187.074 60.2529C184.135 67.1668 181.496 74.5818 179.158 82.4978L169.271 84.0342C169.906 81.0281 170.273 77.354 170.44 73.012C170.507 69.3045 170.574 65.6304 170.674 61.9229L178.122 60.4867L174.916 80.7943H174.949L180.394 61.2883L187.074 60.2529Z" fill="#11BC92"/>
<path d="M199.766 66.8997C198.964 67.1669 198.029 67.4675 196.927 67.8349L194.155 68.7701C194.155 67.7681 193.821 67.2671 193.186 67.2671C192.284 67.2671 191.349 67.7013 190.447 68.6031C189.813 69.2711 189.545 69.9057 189.646 70.507C189.712 70.9078 190.18 71.1082 191.048 71.1082C191.516 71.1082 192.151 71.0414 192.919 70.9078C193.988 70.7074 194.923 70.6072 195.758 70.6072C197.829 70.6072 199.065 71.2084 199.399 72.4442C199.499 72.8116 199.532 73.2458 199.532 73.6466C199.532 75.016 198.931 76.4523 197.762 78.0555C196.226 80.1264 194.055 81.8298 191.282 83.2326C189.813 83.9674 188.376 84.3349 186.974 84.3349C185.671 84.3349 184.435 84.0342 183.166 83.3996C183.8 82.1304 184.769 80.26 186.139 77.7549C186.94 78.2225 187.775 78.4563 188.677 78.4563C189.078 78.4563 189.479 78.3895 189.913 78.2893C190.681 78.1223 191.416 77.8885 192.117 77.5545C193.119 77.0869 193.62 76.6193 193.62 76.1183C193.62 75.5839 193.119 75.3167 192.084 75.3167C191.382 75.3167 190.38 75.4503 189.044 75.6841C187.708 75.9179 186.706 76.0515 186.005 76.0515C185.103 76.0515 184.368 75.9179 183.901 75.6173C182.932 75.0494 182.531 74.2144 182.698 73.0454C183.032 70.674 184.803 67.9685 188.009 64.8622C191.316 61.6892 194.155 60.0191 196.526 59.8521C198.831 59.7185 200 61.2215 200 64.2944C199.933 65.1294 199.866 65.9645 199.766 66.8997Z" fill="#11BC92"/>
<path d="M99.0629 111.389C101.969 104.041 104.173 96.5595 105.71 88.9775L113.425 87.7083L112.323 99.5322L115.329 88.6101L122.744 87.3075C121.876 94.3216 121.408 100.634 121.408 106.246C121.408 107.348 121.408 108.484 121.408 109.552L114.828 110.721L115.997 96.6263L111.755 112.258L108.215 112.725L110.352 92.8854L105.743 110.488L99.0629 111.389Z" fill="#11BC92"/>
<path d="M134 86.0048C136.271 86.0048 137.875 87.274 138.843 89.8125C139.344 91.1151 139.578 92.5514 139.578 94.1212C139.578 95.6242 139.344 97.2609 138.91 99.0311C138.108 102.037 136.739 104.809 134.802 107.348C132.43 110.454 129.892 111.991 127.22 111.991C124.915 111.991 123.278 110.721 122.31 108.183C121.842 106.947 121.608 105.544 121.608 104.008C121.608 102.471 121.842 100.835 122.31 99.0311C123.111 95.9916 124.481 93.2194 126.385 90.6809C128.79 87.5413 131.328 86.0048 134 86.0048ZM132.831 93.9876C131.662 93.9876 130.46 94.9562 129.224 96.8935C128.222 98.4299 127.554 99.8995 127.153 101.369C126.953 102.137 126.852 102.839 126.852 103.473C126.852 104.342 127.053 105.077 127.487 105.644C127.988 106.279 128.656 106.58 129.558 106.58C130.76 106.58 131.829 105.945 132.798 104.676C133.566 103.674 134.134 102.471 134.468 101.102C134.868 99.4987 134.969 97.8955 134.735 96.3256C134.501 94.7558 133.866 93.9876 132.831 93.9876Z" fill="#11BC92"/>
<path d="M141.215 88.4431L146.759 87.4077C145.223 93.353 144.02 98.8307 143.185 103.874L148.863 103.006L148.396 108.985C145.49 109.252 141.782 109.987 137.273 111.222L141.215 88.4431Z" fill="#11BC92"/>
<path d="M160.721 86.0048C162.992 86.0048 164.595 87.274 165.564 89.8125C166.065 91.1151 166.298 92.5514 166.298 94.1212C166.298 95.6242 166.065 97.2609 165.63 99.0311C164.829 102.037 163.459 104.809 161.522 107.348C159.151 110.454 156.612 111.991 153.94 111.991C151.636 111.991 149.999 110.721 149.03 108.183C148.563 106.947 148.329 105.544 148.329 104.008C148.329 102.471 148.563 100.835 149.03 99.0311C149.832 95.9916 151.201 93.2194 153.105 90.6809C155.477 87.5413 158.015 86.0048 160.721 86.0048ZM159.552 93.9876C158.382 93.9876 157.18 94.9562 155.944 96.8935C154.942 98.4299 154.274 99.8995 153.873 101.369C153.673 102.137 153.573 102.839 153.573 103.473C153.573 104.342 153.773 105.077 154.207 105.644C154.708 106.279 155.376 106.58 156.278 106.58C157.481 106.58 158.549 105.945 159.518 104.676C160.286 103.674 160.854 102.471 161.188 101.102C161.589 99.4987 161.689 97.8955 161.455 96.3256C161.222 94.7558 160.587 93.9876 159.552 93.9876Z" fill="#11BC92"/>
<path d="M175.684 86.8733C177.922 86.8733 179.559 88.0757 180.628 90.514L176.987 94.5221C176.486 94.021 175.918 93.7538 175.283 93.7538C174.148 93.7538 172.979 94.7225 171.743 96.6931C170.741 98.2963 170.073 99.7994 169.772 101.202C169.605 101.87 169.539 102.471 169.539 103.006C169.539 104.442 170.073 105.444 171.108 105.979C171.442 106.146 171.81 106.246 172.211 106.246C173.313 106.246 174.482 105.411 175.718 103.774L176.753 107.615C174.615 109.987 172.478 111.156 170.273 111.156C168.036 111.156 166.399 109.987 165.363 107.615C164.729 106.246 164.428 104.709 164.428 103.006C164.428 101.77 164.595 100.434 164.896 99.0312C165.53 96.1587 166.766 93.5534 168.57 91.2154C170.774 88.3095 173.112 86.8733 175.684 86.8733Z" fill="#11BC92"/>
<path d="M180.861 88.4431L186.807 87.4077C185.738 91.5159 184.869 95.2568 184.201 98.6303L186.874 98.0625L188.51 88.4431L194.455 87.4077C192.184 96.192 190.748 103.64 190.147 109.786L184.602 111.189L186.072 102.438C185.471 102.572 184.569 102.772 183.333 103.006C182.932 105.644 182.632 107.916 182.465 109.786L176.92 111.189L180.861 88.4431Z" fill="#11BC92"/>
</svg>
