<svg width="64" height="64" viewBox="0 0 64 64" fill="none" xmlns="http://www.w3.org/2000/svg">
<path d="M55.5 31.84L55.5001 31.8414C55.5108 35.6224 55.2454 39.3992 54.7062 43.1415C54.5006 44.3206 53.9316 45.4061 53.0786 46.2459C52.2293 47.0821 51.1408 47.6331 49.9645 47.8226C43.9735 48.2119 37.995 48.55 32.02 48.55C26.1861 48.55 20.35 48.1802 14.4953 47.8091C14.3542 47.8002 14.2131 47.7912 14.072 47.7823C12.9031 47.6098 11.8172 47.0764 10.9661 46.2564C10.1124 45.4339 9.53795 44.3646 9.3235 43.1989C8.22553 35.6663 8.2255 28.0144 9.3234 20.4819C9.53706 19.3396 10.1109 18.2956 10.9611 17.5031C11.8105 16.7111 12.891 16.2119 14.0444 16.0782C20.0374 15.6988 26.0201 15.39 31.9992 15.4C37.9792 15.41 43.9625 15.7187 49.9553 16.0982C51.1069 16.2338 52.1851 16.7338 53.0327 17.5255C53.8811 18.318 54.4537 19.3612 54.6668 20.5024C55.2217 24.2561 55.5002 28.0455 55.5 31.84Z" stroke="#11BC92"/>
<path d="M38.4925 31.76L27.0601 37.8943V25.6258L38.4925 31.76Z" stroke="#11BC92"/>
</svg>
