<svg width="64" height="64" viewBox="0 0 64 64" fill="none" xmlns="http://www.w3.org/2000/svg">
<mask id="path-1-inside-1" fill="white">
<path d="M14.55 40.17C18.08 42.84 23.41 45.63 32 45.63C40.59 45.63 45.92 42.84 49.45 40.17"/>
</mask>
<path d="M13.9467 40.9676C17.6229 43.7482 23.1601 46.63 32 46.63V44.63C23.6599 44.63 18.5371 41.9319 15.1532 39.3725L13.9467 40.9676ZM32 46.63C40.8399 46.63 46.3771 43.7482 50.0532 40.9676L48.8467 39.3725C45.4629 41.9319 40.3401 44.63 32 44.63V46.63Z" fill="#11BC92" mask="url(#path-1-inside-1)"/>
<mask id="path-3-inside-2" fill="white">
<path d="M48 22.18C43.69 19.98 39.43 17.92 32 17.92C24.57 17.92 20.33 20 16 22.18"/>
</mask>
<path d="M48.4546 21.2894C44.0961 19.0646 39.6665 16.92 32 16.92V18.92C39.1935 18.92 43.2839 20.8955 47.5454 23.0707L48.4546 21.2894ZM32 16.92C24.3318 16.92 19.921 19.0864 15.5503 21.2869L16.4497 23.0732C20.739 20.9137 24.8082 18.92 32 18.92V16.92Z" fill="#11BC92" mask="url(#path-3-inside-2)"/>
<mask id="path-5-inside-3" fill="white">
<path d="M27.32 18.23L25.45 14.55C21.4978 15.0248 17.7393 16.5281 14.55 18.91C14.55 18.91 9 27 8 42.91C13.63 49.4 22.18 49.4501 22.18 49.4501L25.5 45"/>
</mask>
<path d="M25.45 14.55L26.3415 14.097L26.0248 13.4738L25.3307 13.5572L25.45 14.55ZM14.55 18.91L13.9516 18.1088L11.5398 19.91H14.55V18.91ZM8 42.91L7.00197 42.8473L6.97628 43.256L7.24462 43.5653L8 42.91ZM22.18 49.4501L22.1742 50.45L22.6794 50.453L22.9815 50.048L22.18 49.4501ZM28.2115 17.777L26.3415 14.097L24.5585 15.0031L26.4285 18.6831L28.2115 17.777ZM25.3307 13.5572C21.2048 14.0528 17.2811 15.6222 13.9516 18.1088L15.1484 19.7113C18.1975 17.4341 21.7908 15.9968 25.5693 15.5429L25.3307 13.5572ZM14.55 18.91C13.7254 18.3443 13.7251 18.3447 13.7249 18.3451C13.7248 18.3453 13.7245 18.3457 13.7242 18.3461C13.7237 18.3468 13.7232 18.3476 13.7225 18.3485C13.7213 18.3504 13.7196 18.3528 13.7177 18.3557C13.7138 18.3614 13.7086 18.3692 13.7021 18.3789C13.6891 18.3984 13.671 18.4258 13.6481 18.4612C13.6023 18.5319 13.5373 18.6343 13.4556 18.7684C13.2922 19.0367 13.0618 19.4317 12.7844 19.9529C12.2296 20.9953 11.4866 22.5428 10.7143 24.591C9.16937 28.6883 7.50866 34.7858 7.00197 42.8473L8.99803 42.9728C9.49134 35.1243 11.1056 29.2218 12.5857 25.2966C13.3259 23.3336 14.0329 21.8641 14.55 20.8925C14.8085 20.4067 15.0196 20.0454 15.1635 19.809C15.2355 19.6909 15.2908 19.604 15.3268 19.5484C15.3448 19.5206 15.3579 19.5007 15.366 19.4886C15.3701 19.4825 15.3728 19.4784 15.3743 19.4763C15.375 19.4752 15.3754 19.4746 15.3754 19.4745C15.3755 19.4745 15.3754 19.4746 15.3753 19.4748C15.3752 19.4749 15.375 19.4751 15.375 19.4752C15.3748 19.4755 15.3746 19.4758 14.55 18.91ZM7.24462 43.5653C10.2251 47.0011 13.9639 48.7164 16.9228 49.5742C18.4054 50.0041 19.7049 50.2225 20.6377 50.3338C21.1046 50.3895 21.481 50.4185 21.7443 50.4336C21.8761 50.4411 21.9796 50.4452 22.0521 50.4474C22.0884 50.4485 22.117 50.4492 22.1374 50.4495C22.1476 50.4497 22.1558 50.4498 22.162 50.4499C22.165 50.45 22.1676 50.45 22.1696 50.45C22.1706 50.45 22.1715 50.45 22.1723 50.45C22.1727 50.45 22.1731 50.45 22.1733 50.45C22.1738 50.45 22.1742 50.45 22.18 49.4501C22.1858 48.4501 22.1862 48.4501 22.1865 48.4501C22.1865 48.4501 22.1868 48.4501 22.1869 48.4501C22.1872 48.4501 22.1873 48.4501 22.1873 48.4501C22.1872 48.4501 22.1867 48.4501 22.1856 48.4501C22.1835 48.45 22.1793 48.45 22.1732 48.4499C22.161 48.4496 22.1408 48.4492 22.1131 48.4484C22.0576 48.4467 21.972 48.4434 21.8589 48.4369C21.6327 48.4239 21.2972 48.3983 20.8745 48.3479C20.0282 48.2469 18.8384 48.0473 17.4797 47.6534C14.7561 46.8637 11.4049 45.309 8.75538 42.2548L7.24462 43.5653ZM22.9815 50.048L26.3015 45.598L24.6985 44.4021L21.3785 48.8521L22.9815 50.048Z" fill="#11BC92" mask="url(#path-5-inside-3)"/>
<mask id="path-7-inside-4" fill="white">
<path d="M38.5 45L41.82 49.42C41.82 49.42 50.37 49.4 56 42.91C55 27.01 49.45 18.91 49.45 18.91C49.45 18.91 44.45 14.99 38.55 14.55L36.73 18.24"/>
</mask>
<path d="M41.82 49.42L41.0204 50.0206L41.3213 50.4212L41.8223 50.42L41.82 49.42ZM56 42.91L56.7554 43.5653L57.0237 43.256L56.998 42.8473L56 42.91ZM49.45 18.91L50.2749 18.3448L50.188 18.218L50.067 18.1231L49.45 18.91ZM38.55 14.55L38.6243 13.5528L37.9516 13.5026L37.6531 14.1077L38.55 14.55ZM37.7004 45.6006L41.0204 50.0206L42.6195 48.8195L39.2995 44.3995L37.7004 45.6006ZM41.82 49.42C41.8223 50.42 41.8227 50.42 41.8232 50.42C41.8233 50.42 41.8238 50.42 41.8242 50.42C41.8249 50.42 41.8258 50.42 41.8269 50.42C41.8289 50.42 41.8314 50.42 41.8345 50.42C41.8407 50.4199 41.8489 50.4198 41.8591 50.4197C41.8796 50.4194 41.9081 50.4189 41.9444 50.4179C42.017 50.4159 42.1206 50.4122 42.2523 50.4051C42.5157 50.3908 42.8922 50.3631 43.3592 50.3088C44.2922 50.2005 45.592 49.9859 47.0748 49.5599C50.0344 48.7097 53.7742 47.0019 56.7554 43.5653L55.2446 42.2548C52.5958 45.3082 49.2455 46.8554 46.5226 47.6377C45.1643 48.0279 43.9747 48.2239 43.1286 48.3222C42.706 48.3713 42.3706 48.3958 42.1444 48.408C42.0314 48.4141 41.9458 48.4171 41.8903 48.4186C41.8626 48.4194 41.8425 48.4197 41.8303 48.4199C41.8241 48.42 41.82 48.42 41.8179 48.42C41.8168 48.4201 41.8163 48.4201 41.8162 48.4201C41.8162 48.4201 41.8163 48.4201 41.8165 48.4201C41.8167 48.4201 41.8169 48.4201 41.817 48.4201C41.8173 48.4201 41.8176 48.4201 41.82 49.42ZM56.998 42.8473C56.4913 34.7908 54.8306 28.6932 53.2857 24.5948C52.5134 22.5461 51.7705 20.9978 51.2157 19.9546C50.9383 19.433 50.708 19.0377 50.5446 18.7692C50.4629 18.635 50.3979 18.5325 50.3522 18.4617C50.3293 18.4263 50.3112 18.3989 50.2982 18.3794C50.2917 18.3697 50.2865 18.3619 50.2826 18.3561C50.2807 18.3533 50.279 18.3509 50.2778 18.349C50.2771 18.348 50.2766 18.3472 50.2761 18.3465C50.2758 18.3462 50.2756 18.3458 50.2754 18.3456C50.2752 18.3452 50.2749 18.3448 49.45 18.91C48.625 19.4753 48.6248 19.475 48.6247 19.4747C48.6246 19.4747 48.6245 19.4744 48.6244 19.4743C48.6242 19.4741 48.6242 19.474 48.6242 19.4741C48.6243 19.4742 48.6247 19.4747 48.6254 19.4758C48.6269 19.478 48.6296 19.4821 48.6337 19.4881C48.6417 19.5003 48.6549 19.5203 48.6729 19.5481C48.709 19.6038 48.7642 19.6908 48.8362 19.8091C48.9802 20.0457 49.1913 20.4074 49.4499 20.8936C49.967 21.8661 50.674 23.3365 51.4143 25.3003C52.8944 29.2269 54.5087 35.1293 55.002 42.9728L56.998 42.8473ZM49.45 18.91C50.067 18.1231 50.0668 18.1229 50.0665 18.1227C50.0664 18.1226 50.0662 18.1224 50.0659 18.1223C50.0655 18.1219 50.065 18.1216 50.0645 18.1211C50.0633 18.1202 50.0619 18.1191 50.0601 18.1177C50.0566 18.115 50.0519 18.1113 50.0459 18.1067C50.0341 18.0976 50.0174 18.0848 49.996 18.0687C49.9533 18.0363 49.8918 17.9904 49.8126 17.9326C49.6542 17.8172 49.4245 17.6544 49.1317 17.4589C48.5465 17.0684 47.7058 16.5453 46.6744 16.0081C44.6225 14.9396 41.7609 13.7867 38.6243 13.5528L38.4756 15.5473C41.239 15.7534 43.8274 16.7805 45.7506 17.782C46.7066 18.2798 47.4847 18.7642 48.0214 19.1224C48.2895 19.3014 48.4965 19.4482 48.6346 19.5489C48.7036 19.5992 48.7553 19.6379 48.7887 19.6632C48.8055 19.6758 48.8176 19.6851 48.825 19.6908C48.8287 19.6937 48.8312 19.6957 48.8326 19.6967C48.8332 19.6972 48.8336 19.6975 48.8337 19.6976C48.8337 19.6976 48.8337 19.6976 48.8336 19.6975C48.8335 19.6974 48.8334 19.6973 48.8333 19.6973C48.8332 19.6972 48.833 19.697 49.45 18.91ZM37.6531 14.1077L35.8331 17.7977L37.6268 18.6824L39.4468 14.9924L37.6531 14.1077Z" fill="#11BC92" mask="url(#path-7-inside-4)"/>
<path d="M28.23 34.1799C28.23 36.3759 26.6836 38.0399 24.91 38.0399C23.1365 38.0399 21.59 36.3759 21.59 34.1799C21.59 31.984 23.1365 30.3199 24.91 30.3199C26.6836 30.3199 28.23 31.984 28.23 34.1799Z" stroke="#11BC92"/>
<path d="M42.41 34.1799C42.41 36.3759 40.8635 38.0399 39.09 38.0399C37.3165 38.0399 35.77 36.3759 35.77 34.1799C35.77 31.984 37.3165 30.3199 39.09 30.3199C40.8635 30.3199 42.41 31.984 42.41 34.1799Z" stroke="#11BC92"/>
</svg>
