<svg width="64" height="64" viewBox="0 0 64 64" fill="none" xmlns="http://www.w3.org/2000/svg">
<path d="M47.8753 16.2298C50.2534 16.2998 52.6258 16.4964 54.9825 16.8187L50.1842 21.9692L50.05 22.1132V22.31V22.3125V22.315V22.3174V22.3199V22.3223V22.3248V22.3273V22.3297V22.3322V22.3346V22.3371V22.3396V22.342V22.3445V22.347V22.3494V22.3519V22.3543V22.3568V22.3593V22.3617V22.3642V22.3666V22.3691V22.3716V22.374V22.3765V22.3789V22.3814V22.3839V22.3863V22.3888V22.3913V22.3937V22.3962V22.3986V22.4011V22.4036V22.406V22.4085V22.4109V22.4134V22.4159V22.4183V22.4208V22.4232V22.4257V22.4282V22.4306V22.4331V22.4356V22.438V22.4405V22.4429V22.4454V22.4479V22.4503V22.4528V22.4552V22.4577V22.4602V22.4626V22.4651V22.4676V22.47V22.4725V22.4749V22.4774V22.4799V22.4823V22.4848V22.4873V22.4897V22.4922V22.4946V22.4971V22.4996V22.502V22.5045V22.507V22.5094V22.5119V22.5143V22.5168V22.5193V22.5217V22.5242V22.5267V22.5291V22.5316V22.534V22.5365V22.539V22.5414V22.5439V22.5464V22.5488V22.5513V22.5537V22.5562V22.5587V22.5611V22.5636V22.5661V22.5685V22.571V22.5735V22.5759V22.5784V22.5808V22.5833V22.5858V22.5882V22.5907V22.5932V22.5956V22.5981V22.6006V22.603V22.6055V22.6079V22.6104V22.6129V22.6153V22.6178V22.6203V22.6227V22.6252V22.6277V22.6301V22.6326V22.6351V22.6375V22.64V22.6424V22.6449V22.6474V22.6498V22.6523V22.6548V22.6572V22.6597V22.6622V22.6646V22.6671V22.6696V22.672V22.6745V22.677V22.6794V22.6819V22.6844V22.6868V22.6893V22.6918V22.6942V22.6967V22.6992V22.7016V22.7041V22.7066V22.709V22.7115V22.714V22.7164V22.7189V22.7214V22.7238V22.7263V22.7288V22.7312V22.7337V22.7362V22.7386V22.7411V22.7436V22.746V22.7485V22.751V22.7534V22.7559V22.7584V22.7608V22.7633V22.7658V22.7683V22.7707V22.7732V22.7757V22.7781V22.7806V22.7831V22.7855V22.788V22.7905V22.7929V22.7954V22.7979V22.8004V22.8028V22.8053V22.8078V22.8102V22.8127V22.8152V22.8176V22.8201V22.8226V22.8251V22.8275V22.83V22.8325V22.8349V22.8374V22.8399V22.8424V22.8448V22.8473V22.8498V22.8522V22.8547V22.8572V22.8597V22.8621V22.8646V22.8671V22.8695V22.872V22.8745V22.877V22.8794V22.8819V22.8844V22.8869V22.8893V22.8918V22.8943V22.8967V22.8992V22.9017V22.9042V22.9066V22.9091V22.9116V22.9141V22.9165V22.919V22.9215V22.924V22.9264V22.9289V22.9314V22.9339V22.9363V22.9388V22.9413V22.9438V22.9462V22.9487V22.9512V22.9537V22.9561V22.9586V22.9611V22.9636V22.9661V22.9685V22.971V22.9735V22.976V22.9784V22.9809V22.9834V22.9859V22.9883V22.9908V22.9933V22.9958V22.9983V23.0007V23.0032V23.0057V23.0082V23.0107V23.0131V23.0156V23.0181V23.0206V23.023V23.0255V23.028V23.0305V23.033V23.0354V23.0379V23.0404V23.0429V23.0454V23.0479V23.0503V23.0528V23.0553V23.0578V23.0603V23.0627V23.0652V23.0677V23.0702V23.0727V23.0751V23.0776V23.0801V23.0826V23.0851V23.0876V23.09V23.0925V23.095V23.0975V23.1V23.1025V23.1049V23.1074V23.1099V23.1124V23.1149V23.1174V23.1199V23.1223V23.1248V23.1273V23.1298V23.1323V23.1348V23.1373V23.1397V23.1422V23.1447V23.1472V23.1497V23.1522V23.1547V23.1571V23.1596V23.1621V23.1646V23.1671V23.1696V23.1721V23.1746V23.177V23.1795V23.182V23.1845V23.187V23.1895V23.192V23.1945V23.197V23.1995V23.2019V23.2044V23.2069V23.2094V23.2119V23.2144V23.2169V23.2194V23.2219V23.2244V23.2269V23.2293V23.2318V23.2343V23.2368V23.2393V23.2418V23.2443V23.2468V23.2493V23.2518V23.2543V23.2568V23.2593V23.2618V23.2642V23.2667V23.2692V23.2717V23.2742V23.2767V23.2792V23.2817V23.2842V23.2867V23.2892V23.2917V23.2942V23.2967V23.2992V23.3017V23.3042V23.3067V23.3092V23.3117V23.3142V23.3167V23.3192V23.3217V23.3242V23.3267V23.3292V23.3317V23.3342V23.3367V23.3392V23.3417V23.3442V23.3467V23.3492V23.3517V23.3542V23.3567V23.3592V23.3617V23.3642V23.3667V23.3692V23.3717V23.3742V23.3767V23.3792V23.3817V23.3842V23.3867V23.3892V23.3917V23.3942V23.3967V23.3992V23.4017V23.4042V23.4067V23.4092V23.4117V23.4142V23.4167V23.4192V23.4217V23.4243V23.4268V23.4293V23.4318V23.4343V23.4368V23.4393V23.4418V23.4443V23.4468V23.4493V23.4518V23.4543V23.4568V23.4594V23.4619V23.4644V23.4669V23.4694V23.4719V23.4744V23.4769V23.4794V23.4819V23.4845V23.487V23.4895V23.492V23.4945V23.497V23.4995V23.502V23.5046V23.5071V23.5096V23.5121V23.5146V23.5171V23.5196V23.5221V23.5247V23.5272V23.5297V23.5322V23.5347V23.5372V23.5398V23.5423V23.5448V23.5473V23.5498V23.5523V23.5549V23.5574V23.5599V23.5624V23.5649V23.5674V23.57V23.5725V23.575V23.5775V23.58C50.05 36.2878 40.434 50.89 22.9 50.89H22.8997C18.3847 50.893 13.9527 49.7605 10.0064 47.6112C10.1119 47.6117 10.2174 47.6113 10.3228 47.61C14.8146 47.6109 19.1753 46.0968 22.6999 43.3124L23.6206 42.5851L22.4583 42.4247C15.6299 41.4826 11.0688 35.7903 9.35225 31.3655C11.8204 32.2423 14.4067 32.7497 17.0272 32.8695L18.735 32.9476L17.3384 31.9616C14.3836 29.8755 12.1012 26.9733 10.7705 23.6102C10.2375 21.9758 10.307 19.9889 10.6237 18.1892C10.8629 16.8296 11.2358 15.6174 11.5601 14.8008C17.1812 20.718 23.2877 24.7326 31.3047 25.1394L31.9654 25.1729L31.8173 24.5281C31.3636 22.5528 31.5711 20.4832 32.408 18.6374C33.245 16.7915 34.665 15.2717 36.4497 14.3114C38.2345 13.3511 40.2853 13.0036 42.2868 13.3222C44.2883 13.6408 46.1297 14.608 47.5281 16.075L47.6699 16.2238L47.8753 16.2298Z" stroke="#11BC92"/>
</svg>
