<svg width="538" height="352" viewBox="0 0 538 352" fill="none" xmlns="http://www.w3.org/2000/svg">
<path d="M235.523 1.28644L287.737 50.4588L288.023 50.7283L288.353 50.5138L363.214 1.78675L372.179 62.9183L372.261 63.4766L372.805 63.3281L470.748 36.6198L495.532 102.177L495.696 102.609L496.139 102.48L535.127 91.2066L461.709 148.115L460.966 148.691L461.859 148.986L506.397 163.663L448.78 204.048L448.366 204.338L448.661 204.749L461.269 222.318L398.245 254.284L397.933 254.443L397.975 254.791L405.474 316.119L320.402 288.894L320.027 288.775L319.822 289.11L282.45 350.327L230.236 301.154L229.949 300.885L229.62 301.099L154.759 349.826L145.794 288.695L145.712 288.137L145.167 288.285L47.9694 314.79L83.6536 253.896L83.9288 253.426L83.4375 253.192L38.5976 231.796L56.3816 203.368L56.8742 202.58L55.9456 202.603L1.63892 203.918L50.7873 169.409L51.1783 169.135L50.9218 168.732L30.1695 136.121L56.2592 116.399L56.9386 115.885L56.159 115.542L14.8784 97.3832L119.501 97.3832L120.066 97.3832L119.998 96.8225L112.499 35.4939L197.571 62.7188L197.946 62.8386L198.15 62.5032L235.523 1.28644Z" fill="#CBFFB6" stroke="#070500"/>
</svg>
