<svg width="120" height="117" viewBox="0 0 120 117" fill="none" xmlns="http://www.w3.org/2000/svg">
<path d="M72.6651 30.6339L94.2797 19.147L86.7206 42.428L85.8636 45.0677L88.5782 45.6453L112.52 50.7394L91.7643 63.7147L89.411 65.1859L91.1192 67.3733L106.185 86.6649L81.9451 83.2633L79.1966 82.8777L79.0992 85.6513L78.2399 110.114L61.8575 91.9268L60 89.8647L58.1425 91.9268L41.7601 110.114L40.9008 85.6513L40.8034 82.8777L38.0549 83.2633L13.8151 86.6649L28.8808 67.3733L30.589 65.1859L28.2357 63.7147L7.48042 50.7394L31.4218 45.6453L34.1364 45.0677L33.2794 42.428L25.7203 19.147L47.3349 30.6339L49.7857 31.9364L50.8259 29.3633L60 6.67023L69.1741 29.3633L70.2143 31.9364L72.6651 30.6339Z" fill="#5BF1CD" stroke="white" stroke-width="5"/>
</svg>
