<svg width="405" height="291" viewBox="0 0 405 291" fill="none" xmlns="http://www.w3.org/2000/svg">
<path d="M176.897 27.0155L212.511 60.5546L212.797 60.8241L213.126 60.6097L264.184 27.3765L270.287 68.9948L270.369 69.553L270.913 69.4046L337.844 51.153L354.765 95.9111L354.929 96.3428L355.372 96.2146L381.279 88.7235L331.655 127.189L330.912 127.765L331.804 128.059L362.005 138.011L322.807 165.486L322.393 165.776L322.688 166.187L331.215 178.068L288.221 199.875L287.909 200.034L287.951 200.382L293.057 242.134L235.035 223.566L234.66 223.446L234.456 223.782L208.965 265.536L173.351 231.997L173.065 231.727L172.735 231.942L121.678 265.175L115.574 223.557L115.493 222.998L114.948 223.147L48.7616 241.195L73.0021 199.83L73.2773 199.36L72.7861 199.125L42.24 184.55L54.3244 165.233L54.8171 164.445L53.8884 164.468L17.2207 165.355L50.4505 142.024L50.8416 141.749L50.585 141.346L36.4523 119.138L54.2021 105.72L54.8815 105.207L54.1019 104.864L26.5199 92.7304L97.414 92.7304L97.9788 92.7304L97.9103 92.1698L92.8049 50.4173L150.827 68.9854L151.201 69.1052L151.406 68.7698L176.897 27.0155Z" fill="#66EEB5" stroke="#070500"/>
</svg>
