<svg width="32" height="25" viewBox="0 0 32 25" fill="none" xmlns="http://www.w3.org/2000/svg">
<path d="M25.9002 2.29849L26.0421 2.44737L26.2476 2.45342C27.6632 2.49509 29.0756 2.60656 30.4799 2.78739L27.6143 5.86546L27.4802 6.00944V6.20616V6.20775V6.20934V6.21093V6.21252V6.21411V6.2157V6.21729V6.21888V6.22047V6.22206V6.22365V6.22524V6.22683V6.22842V6.23001V6.23161V6.2332V6.23479V6.23638V6.23797V6.23956V6.24115V6.24274V6.24433V6.24592V6.24751V6.2491V6.25069V6.25228V6.25387V6.25546V6.25705V6.25864V6.26023V6.26183V6.26342V6.26501V6.2666V6.26819V6.26978V6.27137V6.27296V6.27455V6.27614V6.27773V6.27932V6.28091V6.28251V6.2841V6.28569V6.28728V6.28887V6.29046V6.29205V6.29364V6.29523V6.29682V6.29841V6.3V6.3016V6.30319V6.30478V6.30637V6.30796V6.30955V6.31114V6.31273V6.31432V6.31592V6.31751V6.3191V6.32069V6.32228V6.32387V6.32546V6.32705V6.32864V6.33024V6.33183V6.33342V6.33501V6.3366V6.33819V6.33978V6.34138V6.34297V6.34456V6.34615V6.34774V6.34933V6.35093V6.35252V6.35411V6.3557V6.35729V6.35888V6.36048V6.36207V6.36366V6.36525V6.36684V6.36844V6.37003V6.37162V6.37321V6.3748V6.3764V6.37799V6.37958V6.38117V6.38276V6.38436V6.38595V6.38754V6.38913V6.39073V6.39232V6.39391V6.3955V6.3971V6.39869V6.40028V6.40187V6.40347V6.40506V6.40665V6.40824V6.40984V6.41143V6.41302V6.41462V6.41621V6.4178V6.41939V6.42099V6.42258V6.42417V6.42577V6.42736V6.42895V6.43055V6.43214V6.43373V6.43533V6.43692V6.43851V6.44011V6.4417V6.4433V6.44489V6.44648V6.44808V6.44967V6.45126V6.45286V6.45445V6.45605V6.45764V6.45923V6.46083V6.46242V6.46402V6.46561V6.46721V6.4688V6.47039V6.47199V6.47358V6.47518V6.47677V6.47837V6.47996V6.48156V6.48315V6.48475V6.48634V6.48794V6.48953V6.49113V6.49272V6.49432V6.49591V6.49751V6.4991V6.5007V6.50229V6.50389V6.50548V6.50708V6.50867V6.51027V6.51187V6.51346V6.51506V6.51665V6.51825V6.51985V6.52144V6.52304V6.52463V6.52623V6.52783V6.52942V6.53102V6.53262V6.53421V6.53581V6.53741V6.539V6.5406V6.5422V6.54379V6.54539V6.54699V6.54858V6.55018V6.55178V6.55338V6.55497V6.55657V6.55817V6.55977V6.56136V6.56296V6.56456V6.56616V6.56775V6.56935V6.57095V6.57255V6.57415V6.57574V6.57734V6.57894V6.58054V6.58214V6.58374V6.58534V6.58693V6.58853V6.59013V6.59173V6.59333V6.59493V6.59653V6.59813V6.59973V6.60133V6.60292V6.60452V6.60612V6.60772V6.60932V6.61092V6.61252V6.61412V6.61572V6.61732V6.61892V6.62052V6.62212V6.62372V6.62532V6.62692V6.62852V6.63013V6.63173V6.63333V6.63493V6.63653V6.63813V6.63973V6.64133V6.64293V6.64453V6.64614V6.64774V6.64934V6.65094V6.65254V6.65414V6.65575V6.65735V6.65895V6.66055V6.66215V6.66376V6.66536V6.66696V6.66856V6.67017V6.67177V6.67337V6.67498V6.67658V6.67818V6.67978V6.68139V6.68299V6.68459V6.6862V6.6878V6.68941V6.69101V6.69261V6.69422V6.69582V6.69742V6.69903V6.70063V6.70224V6.70384V6.70545V6.70705V6.70866V6.71026V6.71187V6.71347V6.71508V6.71668V6.71829V6.71989V6.7215V6.7231V6.72471V6.72631V6.72792V6.72953V6.73113V6.73274V6.73434V6.73595V6.73756V6.73916V6.74077V6.74238V6.74398V6.74559V6.7472V6.74881V6.75041V6.75202V6.75363V6.75523V6.75684V6.75845V6.76006V6.76167V6.76327V6.76488V6.76649V6.7681V6.76971V6.77132V6.77292V6.77453V6.77614V6.77775V6.77936V6.78097V6.78258V6.78419V6.7858V6.78741V6.78902V6.79063V6.79224V6.79385V6.79546V6.79707V6.79868V6.80029V6.8019V6.80351V6.80512V6.80673V6.80834V6.80995V6.81156V6.81317V6.81478V6.8164V6.81801V6.81962V6.82123V6.82284V6.82446V6.82607V6.82768V6.82929V6.8309V6.83252V6.83413V6.83574V6.83736V6.83897V6.84058V6.8422V6.84381V6.84542V6.84704V6.84865V6.85026V6.85188V6.85349V6.85511V6.85672V6.85833V6.85995V6.86156V6.86318V6.86479V6.86641V6.86802V6.86964V6.87125V6.87287V6.87449V6.8761V6.87772V6.87933V6.88095V6.88257V6.88418V6.8858V6.88741V6.88903V6.89065V6.89227V6.89388V6.8955V6.89712V6.89873V6.90035V6.90197V6.90359V6.90521V6.90682V6.90844V6.91006V6.91168V6.9133V6.91492V6.91653V6.91815V6.91977V6.92139V6.92301V6.92463V6.92625V6.92787V6.92949V6.93111V6.93273V6.93435V6.93597V6.93759V6.93921V6.94083V6.94245V6.94408V6.9457V6.94732V6.94894V6.95056V6.95218V6.9538V6.95543V6.95705V6.95867V6.96029V6.96192V6.96354V6.96516V6.96678V6.96841V6.97003V6.97165V6.97328V6.9749V6.97653V6.97815V6.97977V6.9814V6.98302V6.98465V6.98627V6.9879V6.98952V6.99115V6.99277V6.9944V6.99602V6.99765V6.99927V7.0009V7.00253V7.00415V7.00578V7.0074V7.00903V7.01066V7.01229V7.01391V7.01554V7.01717V7.01879V7.02042V7.02205V7.02368V7.02531V7.02693C27.4802 15.165 21.3277 24.5 10.1229 24.5H10.1226C7.47066 24.5017 4.86351 23.8903 2.50084 22.7244C5.26386 22.619 7.92723 21.6387 10.1036 19.9182L11.0235 19.1911L9.86193 19.0307C5.71638 18.4583 2.87616 15.1115 1.6849 12.3523C3.1828 12.8469 4.74284 13.135 6.32194 13.2072L8.02884 13.2853L6.6333 12.2994C4.75462 10.9721 3.30308 9.12594 2.45601 6.98657C2.12654 5.97094 2.16688 4.72234 2.36888 3.57352C2.49777 2.84047 2.68719 2.17693 2.86575 1.67865C6.45982 5.40923 10.3945 7.94997 15.5419 8.21135L16.2026 8.2449L16.0546 7.60012C15.7702 6.36124 15.9003 5.06318 16.4249 3.90551C16.9494 2.74783 17.8393 1.79467 18.9578 1.19246C20.0763 0.590264 21.3614 0.372335 22.6156 0.572143C23.8699 0.771952 25.0239 1.37845 25.9002 2.29849Z" stroke="#6AC59F"/>
</svg>
