<svg width="21" height="18" viewBox="0 0 21 18" fill="none" xmlns="http://www.w3.org/2000/svg">
<path d="M19.0918 0.836792H1.5C0.947715 0.836792 0.5 1.28451 0.5 1.83679V16.1633C0.5 16.7156 0.947714 17.1633 1.5 17.1633H19.0918C19.6441 17.1633 20.0918 16.7156 20.0918 16.1633V1.83679C20.0918 1.28451 19.6441 0.836792 19.0918 0.836792Z" stroke="#2CAE92" stroke-miterlimit="5"/>
<path d="M19.4999 6.95923H13.3367C12.7844 6.95923 12.3367 7.40694 12.3367 7.95923V10.449C12.3367 11.0013 12.7844 11.449 13.3367 11.449H19.4999C20.0522 11.449 20.4999 11.0013 20.4999 10.449V7.95923C20.4999 7.40694 20.0522 6.95923 19.4999 6.95923Z" stroke="#2CAE92" stroke-miterlimit="5"/>
</svg>
